<svg xmlns="http://www.w3.org/2000/svg" width="1600" height="900" viewBox="0 0 1600 900"><defs><clipPath id="a"><path fill="#021d49" stroke="#021d49" stroke-miterlimit="10" stroke-width="2.04" d="M-9-976.6h1656v911.19H-9z"/></clipPath><clipPath id="b"><path fill="#39b54a" stroke="#39b54a" stroke-miterlimit="10" stroke-width="5.75" d="M738.9 326a14.6 14.6 0 0 0-4.5-11.5c-9.1-8.5-38-20.2-127.6 3.9l-44.3 13.9s-94.4 29.9-135.3 70.4l8.6 27.4s43.1 15 175.8-26.6l35.5-11.2s89.3-29.6 91.8-66.3z"/></clipPath></defs><path fill="#021d49" d="M-9-976.6h1656v911.19H-9z"/><g fill="none" stroke="#fff" stroke-miterlimit="10" stroke-width="6.13" clip-path="url(#a)"><ellipse cx="-388.9" cy="61" rx="599.1" ry="340.5" transform="rotate(-27.7 -388.46 60.838)"/><ellipse cx="-388.9" cy="61" rx="714.2" ry="405.9" transform="rotate(-27.7 -388.46 60.838)"/><ellipse cx="-388.9" cy="61" rx="851" ry="483.7" transform="rotate(-27.7 -388.46 60.838)"/><ellipse cx="-388.9" cy="61" rx="1031.5" ry="586.2" transform="rotate(-27.7 -388.46 60.838)"/><ellipse cx="-388.9" cy="61" rx="1296.2" ry="736.7" transform="rotate(-27.7 -388.46 60.838)"/><ellipse cx="-388.9" cy="61" rx="1556.8" ry="884.8" transform="rotate(-27.7 -388.46 60.838)"/><ellipse cx="-388.9" cy="61" rx="1765.9" ry="1003.6" transform="rotate(-27.7 -388.46 60.838)"/><ellipse cx="-388.9" cy="61" rx="2035.2" ry="1156.7" transform="rotate(-27.7 -388.46 60.838)"/></g><path fill="none" stroke="#021d49" stroke-miterlimit="10" stroke-width="2.04" d="M-9-976.6h1656v911.19H-9z"/><path fill="#021d49" d="M-14.9-17.3h1618v918h-1618z"/><path fill="#fff" d="M307 373.3s499.9-193.9 848.3-12.7v57.6s-524.4-88.7-841.9 142.6l-20.5-12.6-5.3-169.4z"/><path fill="none" stroke="#021d49" stroke-linecap="round" stroke-linejoin="round" stroke-width="1.69" d="M280.9 422s440.6-191.8 829.8-61.4M309.1 502.8s312.1-184 794.8-113.4m-806.2 75.5c131.6-62.8 368.5-143.2 681-114.9"/><rect width="1057.5" height="563.8" x="281.1" y="90.6" fill="none" stroke="#fff" stroke-miterlimit="10" stroke-width="40.48" rx="185" ry="185"/><circle cx="435.5" cy="654.4" r="6.8" fill="#021d49"/><circle cx="478.5" cy="654.4" r="6.8" fill="#021d49"/><circle cx="516.5" cy="654.4" r="6.8" fill="#021d49"/><circle cx="553.2" cy="654.4" r="6.8" fill="#021d49"/><circle cx="596.3" cy="654.4" r="6.8" fill="#021d49"/><circle cx="634.3" cy="654.4" r="6.8" fill="#021d49"/><circle cx="669.6" cy="654.4" r="6.8" fill="#021d49"/><circle cx="712.6" cy="654.4" r="6.8" fill="#021d49"/><circle cx="750.6" cy="654.4" r="6.8" fill="#021d49"/><circle cx="790" cy="654.4" r="6.8" fill="#021d49"/><circle cx="281.2" cy="269" r="6.8" fill="#021d49"/><circle cx="281.1" cy="312.1" r="6.8" fill="#021d49"/><circle cx="281" cy="350" r="6.8" fill="#021d49"/><circle cx="280.9" cy="389.4" r="6.8" fill="#021d49"/><circle cx="280.9" cy="428.8" r="6.8" fill="#021d49"/><circle cx="281.1" cy="471.9" r="6.8" fill="#021d49"/><circle cx="1338.8" cy="269" r="6.8" fill="#021d49"/><circle cx="1338.7" cy="312.1" r="6.8" fill="#021d49"/><circle cx="1338.5" cy="350" r="6.8" fill="#021d49"/><circle cx="1338.4" cy="389.4" r="6.8" fill="#021d49"/><circle cx="1338.4" cy="428.8" r="6.8" fill="#021d49"/><circle cx="1338.6" cy="471.9" r="6.8" fill="#021d49"/><circle cx="833.1" cy="654.4" r="6.8" fill="#021d49"/><circle cx="871" cy="654.4" r="6.8" fill="#021d49"/><circle cx="908.8" cy="654.4" r="6.8" fill="#021d49"/><circle cx="951.9" cy="654.4" r="6.8" fill="#021d49"/><circle cx="989.8" cy="654.4" r="6.8" fill="#021d49"/><circle cx="1029.6" cy="654.4" r="6.8" fill="#021d49"/><circle cx="1072.7" cy="654.4" r="6.8" fill="#021d49"/><circle cx="1110.7" cy="654.4" r="6.8" fill="#021d49"/><circle cx="1148.2" cy="654.4" r="6.8" fill="#021d49"/><circle cx="1186.2" cy="654.4" r="6.8" fill="#021d49"/><circle cx="435.5" cy="90.6" r="6.8" fill="#021d49"/><circle cx="478.5" cy="90.6" r="6.8" fill="#021d49"/><circle cx="516.5" cy="90.6" r="6.8" fill="#021d49"/><circle cx="553.2" cy="90.6" r="6.8" fill="#021d49"/><circle cx="596.3" cy="90.6" r="6.8" fill="#021d49"/><circle cx="634.3" cy="90.6" r="6.8" fill="#021d49"/><circle cx="669.6" cy="90.6" r="6.8" fill="#021d49"/><circle cx="712.6" cy="90.6" r="6.8" fill="#021d49"/><circle cx="750.6" cy="90.6" r="6.8" fill="#021d49"/><circle cx="790" cy="90.6" r="6.8" fill="#021d49"/><circle cx="833.1" cy="90.6" r="6.8" fill="#021d49"/><circle cx="871" cy="90.6" r="6.8" fill="#021d49"/><circle cx="908.8" cy="90.6" r="6.8" fill="#021d49"/><circle cx="951.9" cy="90.6" r="6.8" fill="#021d49"/><circle cx="989.8" cy="90.6" r="6.8" fill="#021d49"/><circle cx="1029.6" cy="90.6" r="6.8" fill="#021d49"/><circle cx="1072.7" cy="90.6" r="6.8" fill="#021d49"/><circle cx="1110.7" cy="90.6" r="6.8" fill="#021d49"/><circle cx="1148.2" cy="90.6" r="6.8" fill="#021d49"/><circle cx="1186.2" cy="90.6" r="6.8" fill="#021d49"/><path fill="#fff" d="M388.4 216.7l4.7 8.7 8.7 4.8-8.7 4.7-4.7 8.7-4.8-8.7-8.7-4.7 8.7-4.8 4.8-8.7zm96.9-71.6l4.7 8.7 8.7 4.8-8.7 4.7-4.7 8.7-4.8-8.7-8.7-4.7 8.7-4.8 4.8-8.7zm24.4 98.5l4.8 8.7 8.7 4.7-8.7 4.8-4.8 8.7-4.7-8.7-8.7-4.8 8.7-4.7 4.7-8.7zM1117.5 485l4.7 8.7 8.7 4.7-8.7 4.8-4.7 8.7-4.8-8.7-8.7-4.8 8.7-4.7 4.8-8.7z"/><path fill="#f1f2f2" d="M1247.7 308.8l4.7 8.7 8.7 4.7-8.7 4.8-4.7 8.6-4.8-8.6-8.7-4.8 8.7-4.7 4.8-8.7z"/><path fill="#fff" d="M1206.4 152.9l4.7 8.7 8.7 4.7-8.7 4.8-4.7 8.7-4.8-8.7-8.7-4.8 8.7-4.7 4.8-8.7zm-507.2 77.3l4.7 8.7 8.7 4.7-8.7 4.8-4.7 8.6-4.8-8.6-8.7-4.8 8.7-4.7 4.8-8.7zm330.4-83.3l4.8 8.7 8.7 4.7-8.7 4.8-4.8 8.7-4.7-8.7-8.7-4.8 8.7-4.7 4.7-8.7zM1104 257l4.8 8.7 8.7 4.8-8.7 4.7-4.8 8.7-4.7-8.7-8.7-4.7 8.7-4.8 4.7-8.7zM712.6 563.4l4.8 8.7 8.7 4.8-8.7 4.7-4.8 8.7-4.7-8.7-8.7-4.7 8.7-4.8 4.7-8.7zm55.5-92.1l4.7 8.7 8.7 4.7-8.7 4.8-4.7 8.7-4.8-8.7-8.7-4.8 8.7-4.7 4.8-8.7zM978.7 438l4.8 8.7 8.7 4.8-8.7 4.7-4.8 8.7-4.7-8.7-8.7-4.7 8.7-4.8 4.7-8.7zm-87.4 125.4l4.7 8.7 8.7 4.8-8.7 4.7-4.7 8.7-4.8-8.7-8.7-4.7 8.7-4.8 4.8-8.7zm181.4 19.9l4.8 8.7 8.6 4.8-8.6 4.7-4.8 8.7-4.8-8.7-8.6-4.7 8.6-4.8 4.8-8.7zM826.3 145.1l4.8 8.7 8.6 4.8-8.6 4.7-4.8 8.7-4.8-8.7-8.6-4.7 8.6-4.8 4.8-8.7zM582.8 556.5l4.8 8.6 8.7 4.8-8.7 4.7-4.8 8.7-4.7-8.7-8.7-4.7 8.7-4.8 4.7-8.6zM478.5 507l4.8 8.7 8.7 4.8-8.7 4.7-4.8 8.7-4.7-8.7-8.7-4.7 8.7-4.8 4.7-8.7zm769.2-8.6l4.7 8.7 8.7 4.8-8.7 4.7-4.7 8.7-4.8-8.7-8.7-4.7 8.7-4.8 4.8-8.7z"/><rect width="1149.1" height="649.53" x="236" y="49" fill="none" stroke="#fff" stroke-miterlimit="10" stroke-width="5.03" rx="207" ry="207"/><circle cx="1155.3" cy="389.4" r="28.8" fill="#fff" stroke="#021d49" stroke-miterlimit="10" stroke-width="1.69"/><path fill="#39b54a" d="M738.9 326a14.6 14.6 0 0 0-4.5-11.5c-9.1-8.5-38-20.2-127.6 3.9l-44.3 13.9s-94.4 29.9-135.3 70.4l8.6 27.4s43.1 15 175.8-26.6l35.5-11.2s89.3-29.6 91.8-66.3z"/><g clip-path="url(#b)"><path fill="none" stroke="#fff" stroke-miterlimit="10" stroke-width="1.92" d="M738.9 326a14.6 14.6 0 0 0-4.5-11.5c-9.1-8.5-38-20.2-127.6 3.9l-44.3 13.9s-94.4 29.9-135.3 70.4l8.6 27.4s43.1 15 175.8-26.6l35.5-11.2s89.3-29.6 91.8-66.3z"/><path fill="#94ce91" d="M425.259 411.706L740.876 310.98l3.906 12.242-315.616 100.726z"/></g><path fill="none" stroke="#39b54a" stroke-miterlimit="10" stroke-width="5.75" d="M738.9 326a14.6 14.6 0 0 0-4.5-11.5c-9.1-8.5-38-20.2-127.6 3.9l-44.3 13.9s-94.4 29.9-135.3 70.4l8.6 27.4s43.1 15 175.8-26.6l35.5-11.2s89.3-29.6 91.8-66.3z"/></svg>