<svg xmlns="http://www.w3.org/2000/svg"><symbol id="boarding" viewBox="0 0 216 216"><path fill="none" stroke="#021d49" stroke-linecap="round" stroke-linejoin="round" stroke-width="3.02" d="M111.7 152l-52.2-.1.1-33.4.1-45.7 52.2.2-.2 79z"/><path fill="#021d49" stroke="#021d49" stroke-linecap="round" stroke-linejoin="round" stroke-width="3.02" d="M38 151.8L59.6 102l-.1 49.9-21.5-.1z"/><path fill="none" stroke="#021d49" stroke-linecap="round" stroke-linejoin="round" stroke-width="3.02" d="M133.1 152.1l-21.3-50-.1 49.9 21.4.1zm-65.7-.2l-4.9 24.9 23 .1.1-25H67.4z"/><path fill="#021d49" stroke="#021d49" stroke-linecap="round" stroke-linejoin="round" stroke-width="3.02" d="M103.7 152l4.7 24.9H85.5l.1-25 18.1.1zm-44-79.2l18.5-29.7a9 9 0 0 1 15.3.1L111.9 73z"/><circle cx="85.7" cy="96.5" r="11.5" fill="#021d49" stroke="#021d49" stroke-linecap="round" stroke-linejoin="round" stroke-width="3.02"/><path fill="#021d49" stroke="#021d49" stroke-linecap="round" stroke-linejoin="round" stroke-width="5.33" d="M59.2 106.3l93.6 1.5"/><path fill="#021d49" stroke="#021d49" stroke-linecap="round" stroke-linejoin="round" stroke-width="3.59" d="M153.5 38.9h25.9v138.13h-25.9z"/></symbol><symbol id="email-dark" viewBox="0 0 216 216"><circle cx="108.1" cy="108" r="101.7" fill="#021d49"/><path fill="none" stroke="#fff" stroke-linecap="round" stroke-linejoin="round" stroke-width="5.41" d="M43 66.8h131.5v83.9H43z"/><path fill="none" stroke="#fff" stroke-linecap="round" stroke-linejoin="round" stroke-width="5.41" d="M108.7 108.7L43 150.6h131.5l-65.8-41.9z"/><path fill="#021d49" stroke="#fff" stroke-linecap="round" stroke-linejoin="round" stroke-width="5.41" d="M43 66.8l65.7 47.9 65.8-47.9H43z"/></symbol><symbol id="email-light" viewBox="0 0 216 216"><circle cx="108" cy="108.7" r="101.7" fill="#fff"/><path fill="#fff" stroke="#021d49" stroke-linecap="round" stroke-linejoin="round" stroke-width="6" d="M42.2 66.8h131.5v83.9H42.2z"/><path fill="#fff" stroke="#021d49" stroke-linecap="round" stroke-linejoin="round" stroke-width="6" d="M108 108.7l-65.8 41.9h131.6L108 108.7z"/><path fill="#fff" stroke="#021d49" stroke-linecap="round" stroke-linejoin="round" stroke-width="6" d="M42.2 66.8l65.8 47.9 65.8-47.9H42.2z"/></symbol><symbol id="facebook-dark" viewBox="0 0 216 216"><circle cx="108" cy="108" r="101.7" fill="#021d49"/><path fill="#fff" d="M118.6 183.1H86.2v-71.7H73.7v-24h12.6V70.3S84 40 115.4 40h26.9v23.9h-14.4s-9.4-.7-9.4 7.3v16.2h22l-2.5 24.1h-19.4z"/></symbol><symbol id="facebook-light" viewBox="0 0 216 216"><circle cx="107.9" cy="108.7" r="101.7" fill="#fff"/><path fill="#021d49" d="M118.5 183.8H86.1v-71.7H73.6v-24h12.6V71s-2.3-30.3 29.1-30.3h27v23.9h-14.5s-9.3-.7-9.3 7.3v16.2h22l-2.6 24.1h-19.4z"/></symbol><symbol id="flying" viewBox="0 0 216 216"><path fill="none" stroke="#021d49" stroke-linecap="round" stroke-linejoin="round" stroke-width="2.81" d="M122.4 164.8L95 124.6l25.7-17.5 35.2-23.9 27.4 40.1-60.9 41.5z"/><path fill="#021d49" stroke="#021d49" stroke-linecap="round" stroke-linejoin="round" stroke-width="2.81" d="M83.8 108.1l49.6-9.6L95 124.6l-11.2-16.5z"/><path fill="none" stroke="#021d49" stroke-linecap="round" stroke-linejoin="round" stroke-width="2.81" d="M133.7 181.3l27.1-42.7-38.4 26.2 11.3 16.5zm-34.5-50.6l-21.7 9.4 12 17.7 19.2-13.1-9.5-14z"/><path fill="#021d49" stroke="#021d49" stroke-linecap="round" stroke-linejoin="round" stroke-width="2.81" d="M118.3 158.7l-16.7 16.8-12.1-17.7 19.2-13.1 9.6 14zm37.6-75.5l32.6-1.4a8.3 8.3 0 0 1 8 11.7l-13.2 29.8z"/><circle cx="151.4" cy="115.6" r="10.7" fill="#021d49" stroke="#021d49" stroke-linecap="round" stroke-linejoin="round" stroke-width="2.81"/><path fill="none" stroke="#021d49" stroke-linecap="round" stroke-linejoin="round" stroke-width="2.64" d="M104.7 46.3a32.4 32.4 0 0 1-62.9 10.6A31.5 31.5 0 0 1 40 46.3a32.4 32.4 0 0 1 64.7 0z"/><path fill="#021d49" stroke="#021d49" stroke-linecap="round" stroke-linejoin="round" stroke-width="2.64" d="M68.6 58.8s-13.8 7-26.8-1.9c0 0 3.9 13.3 16.9 18.7 0 0 20.3 2 22.6-4.1s16.4-5.1 16.4-5.1l4.6-7.8s-26.2-7.3-33.7.2z"/><path fill="#021d49" stroke="#021d49" stroke-linecap="round" stroke-linejoin="round" stroke-width="2.63" d="M41.9 36.6s15.8-9.7 31.4-4.8 24.6-5.4 24.6-5.4 4.7 7.6 5.3 10.2-2.4 7.8-8.1 9.7-25.8-5.3-33.3-1.4-21.3 1.4-21.3 1.4-.4-6.4 1.4-9.7zm15.2-18.8a19.9 19.9 0 0 0 16 4.6c9.7-1.4 10.1-6.6 10.1-6.6s-13.3-5-26.1 2z"/><circle cx="124.5" cy="54.2" r="7.9" fill="#021d49" stroke="#021d49" stroke-linecap="round" stroke-linejoin="round" stroke-width="2.8"/><circle cx="36.3" cy="70.8" r="3.7" fill="#021d49" stroke="#021d49" stroke-linecap="round" stroke-linejoin="round" stroke-width="1.33"/><path fill="none" stroke="#021d49" stroke-linecap="round" stroke-linejoin="round" stroke-width="2.48" d="M80.7 162.9l-44.6 31.5m31.8-45.5L49.4 162m37.9 19.3L57.9 202"/></symbol><symbol id="instagram-dark" viewBox="0 0 216 216"><circle cx="108" cy="108" r="101.7" fill="#021d49"/><rect width="137.5" height="137.46" x="39.3" y="40" fill="#fff" rx="38.1" ry="38.1"/><rect width="113.2" height="113.17" x="51.4" y="52.1" fill="#021d49" rx="27.3" ry="27.3"/><circle cx="108" cy="108.7" r="35.5" fill="#fff"/><circle cx="144.9" cy="72.1" r="8.6" fill="#fff"/><circle cx="108" cy="108.7" r="22.9" fill="#021d49"/></symbol><symbol id="instagram-light" viewBox="0 0 216 216"><circle cx="108" cy="108" r="101.7" fill="#fff"/><rect width="137.5" height="137.46" x="39.2" y="42.2" fill="#021d49" rx="38.1" ry="38.1"/><rect width="113.2" height="113.17" x="51.4" y="54.3" fill="#fff" rx="27.3" ry="27.3"/><circle cx="107.9" cy="110.9" r="35.5" fill="#021d49"/><circle cx="144.9" cy="74.3" r="8.6" fill="#021d49"/><circle cx="107.9" cy="110.9" r="22.9" fill="#fff"/></symbol><symbol id="moon-bouncing" viewBox="0 0 216 216"><defs><clipPath id="a"><circle cx="107.4" cy="109.3" r="88.6" fill="none"/></clipPath></defs><g fill="#021d49" stroke="#021d49" stroke-linecap="round" stroke-linejoin="round" stroke-width="3" clip-path="url(#a)"><path d="M131.1 161.7c1.3-7.3-6.5-13.9-17.1-14s-19.1 5.9-18.9 13.1 7.7 12.7 16.7 13 17.8-4.8 19.3-12.1z"/><path d="M97.2 159.7c.1-7.2-8.4-13.7-19.1-13.8s-18.5 5.9-17.1 13 10.2 12.5 19.3 12.8 16.7-4.7 16.9-12zM198.4 173c4.8-7.2-.6-13.7-10.9-13.9s-20.3 5.8-23.3 12.8.8 12.3 9.2 12.6 20.1-4.4 25-11.5z"/><path d="M83.8 179.3c-.6-6.1-8.8-11.9-18.5-12.2s-15.8 5-13 11 11.6 10.3 19.1 10.7 12.9-3.4 12.4-9.5zm56.6 7.8c3.2-5.9-2.2-11.6-11.5-11.9s-17.3 4.8-18.2 10.6 4 9.9 10.8 10.3 15.6-3.1 18.9-9zm-127-68.5c-.5-7.8-9.2-14.2-20.3-14.1s-20.5 6.3-19.8 14 11.1 13.8 21.9 13.9 18.6-5.9 18.2-13.8zm34.2-13.7c.1-8-8.3-14.2-19.2-14.1s-20.7 6.4-21 14.3 9.2 14.1 20.3 14.2 19.7-6.4 19.9-14.4zm187-5.2c-.8-8.7-11.5-15.4-22.3-15.3s-18.3 7-17.8 15.5 9.2 15.4 20.3 15.4 20.6-7 19.8-15.6zM44.1 142.8c-.4-2.7-3.7-4.9-7.5-5s-6.6 2.2-6.1 4.8 4 4.9 7.7 4.9 6.3-2 5.9-4.7z"/><path d="M18.6 130.6c-.4-2.8-3.8-5.1-7.7-5.1s-6.8 2.2-6.3 4.9 4 5 7.8 5 6.5-2.1 6.2-4.8zM72 142.1c-.2-2.8-3.4-5.1-7.3-5.1s-6.7 2.2-6.4 4.9 3.5 4.9 7.3 5 6.5-2.1 6.4-4.8zm-38.1 25.8c-1-2.4-4.5-4.4-8-4.5s-5.3 1.8-4.1 4.1 4.9 4.2 8.1 4.3 5-1.6 4-3.9zm13.7 2.9c-.9-2.3-4.2-4.3-7.6-4.4s-5.4 1.7-4.3 4 4.6 4.1 7.7 4.2 5-1.5 4.2-3.8zm-12.9-11.5c-.8-2.5-4.2-4.6-7.9-4.7S21 156.5 22 159s4.6 4.4 8 4.5 5.5-1.7 4.7-4.2z"/><path d="M45.6 164.9c-.8-2.4-4.2-4.4-7.7-4.5s-5.7 1.8-4.7 4.2 4.5 4.3 7.8 4.4 5.3-1.7 4.6-4.1zM72 76.1c.2-2.7-2.6-4.8-6.3-4.7s-7 2.2-7.3 4.9 2.6 4.9 6.4 4.8 7.1-2.3 7.2-5zm-41.4.7c.5-2.7-2-4.7-5.7-4.6s-7.3 2.2-8 4.8 2.1 4.8 5.9 4.7 7.2-2.3 7.8-4.9zM28.5 67c.7-2.5-1.5-4.4-5-4.3s-7.2 2.1-8.1 4.6 1.5 4.6 5.2 4.5 7.2-2.2 7.9-4.8zm23.2 4.2c.4-2.6-2.1-4.6-5.8-4.6s-7 2.2-7.6 4.8 2.1 4.7 5.9 4.7 7.1-2.3 7.5-4.9zM6.9 69.7c.9-2.5-1.2-4.4-4.7-4.3s-7.5 2.1-8.5 4.6 1.2 4.6 4.9 4.5 7.4-2.2 8.3-4.8zm43.2-26.4c.9-2.1-.7-3.6-3.6-3.5s-6.5 1.9-7.7 3.9.5 3.8 3.8 3.7 6.6-2 7.5-4.1zm-16.6 9.9c1-2.3-.8-4-4-3.9s-7 2-8.2 4.3.7 4.1 4.2 4 7-2.1 8-4.4zM63 42.3c-2.9-.1-6.3 1.4-7.5 3.6s.3 4.2 3.6 4.4 6.6-1.5 7.5-3.7-.6-4.1-3.6-4.3zm42 4c-3.3-.2-6.2 1.4-6.6 3.8s2 4.5 5.4 4.7 6.5-1.5 6.7-3.9-2.3-4.4-5.5-4.6zM121.9 95c-3.8-.4-7.4 1.7-7.9 4.5s2.3 5.6 6.2 6 7.5-1.7 8-4.6-2.4-5.5-6.3-5.9zm-32.6 2.2c-3.9-.4-7.5 1.6-8 4.4s2.1 5.5 6 5.9 7.5-1.6 8.1-4.5-2.2-5.5-6.1-5.8zM1.5 91.8c.4-2.7-2.3-4.9-6.2-4.8s-7.5 2.2-7.9 4.9 2.4 4.9 6.4 4.9 7.3-2.3 7.7-5zm98.4 79.1c.1-2.4-2.6-4.5-6-4.6s-6.2 1.8-6 4.2 2.9 4.3 6.1 4.4 5.8-1.6 5.9-4zm-8.7 14c-.1-2-2.7-3.9-5.8-4s-5.2 1.5-4.8 3.5 3 3.7 5.8 3.8 4.8-1.3 4.8-3.3zm73.3-4.2c1.4-2.3-.2-4.3-3.4-4.4s-6.8 1.7-7.9 4 .3 4.1 3.3 4.3 6.6-1.6 8-3.9zM196.8 90c-.4-3-4-5.3-7.8-5.3s-6.6 2.5-6.3 5.4 3.8 5.4 7.7 5.3 6.9-2.4 6.4-5.4zm-14.6 21.9c.1-3-3.2-5.5-7.1-5.5s-7.1 2.5-7.1 5.5 3 5.4 7 5.4 7.2-2.4 7.2-5.4zm14.3-2.9c0-3-3.3-5.5-7.2-5.4s-7.1 2.4-7.1 5.4 3.2 5.5 7.1 5.5 7.2-2.5 7.2-5.5zm-30 24.9c.4-2.9-2.6-5.4-6.5-5.4s-7.2 2.3-7.5 5.2 2.5 5.3 6.3 5.3 7.3-2.2 7.7-5.1zm17.6 10.8c.7-2.8-1.9-5.2-5.8-5.3s-7.3 2.3-7.8 5.1 1.9 5.2 5.6 5.3 7.3-2.2 8-5.1zm23.5 6.9c1-2.8-1.3-5.2-5-5.3s-7.5 2.3-8.4 5.1 1.2 5.1 4.8 5.2 7.5-2.1 8.6-5zm23.1-11.3c.9-3-1.7-5.5-5.6-5.5s-7.5 2.4-8.2 5.3 1.5 5.4 5.2 5.4 7.7-2.2 8.6-5.2zm-9-20.3c.2-3-2.9-5.5-6.8-5.5s-7.2 2.5-7.5 5.5 2.7 5.5 6.6 5.5 7.4-2.4 7.7-5.5zM113.9 29.4c-.5-1.9-3.1-3.1-5.6-3s-4.4 1.7-4.2 3.5 2.7 3.3 5.6 3.1 4.8-1.8 4.2-3.6zm16.2 87.5c.1-5.3-5.8-9.7-13-9.7s-13 4.4-13 9.6 5.7 9.6 12.8 9.7 13.1-4.2 13.2-9.6zm-43.9-.1c0-5.3-5.8-9.5-13-9.5s-13.1 4.3-13 9.4 6.1 9.4 13.2 9.5 12.8-4.2 12.8-9.4zM67.9 96.3c.1-5.2-5.4-9.2-12.4-9.1S42.3 91.4 42 96.5s5.5 9.2 12.7 9.2 13-4.3 13.2-9.4zm68.3-38c-1-4.7-6.9-8.1-13-7.9s-10.6 3.8-10.3 8.5 6.1 8.5 12.8 8.3 11.5-4.2 10.5-8.9zm-30.9 10.4c-.3-4.9-5.7-8.5-12.1-8.3s-11.9 4-12.2 8.8 5.1 8.8 12 8.7 12.5-4.3 12.3-9.2z"/><path d="M49.2 60.6c1-4.5-2.9-7.8-9-7.6s-12.6 3.7-14.3 8.2 2.6 8.1 9.4 7.9 12.8-4.1 13.9-8.5zM94 33.8c0-3.5-3.7-5.8-8.4-5.5s-9.3 2.9-10.4 6.4 2.8 6.5 8.5 6.2S94 37.3 94 33.8zm-8.7 23.6c.2-4.5-4.5-7.8-10.4-7.6S63.2 53.6 62.3 58s3.9 8.2 10.6 8 12.2-4.1 12.4-8.6zm88.7 89.4c1.3-5.2-3.8-9.6-10.8-9.6s-13.1 4.1-13.9 9.2 3.8 9.2 10.3 9.3 13.2-3.7 14.4-8.9zm-129.5 6.5c1.5 4.7 8 8.2 14.2 8s10.5-3.9 9.6-8.7-7.3-8.6-14.1-8.4-11.2 4.4-9.7 9.1zm-25.6-24.1c1.1 5 7.9 8.7 14.7 8.4s11.6-4.5 10.7-9.5-7.2-9-14.3-8.7-12.3 4.8-11.1 9.8zm154.4-68.3c-1.8-4.9-8.5-8.5-14.7-8.3s-10.1 4-9 8.9 7.3 8.8 14.1 8.6 11.3-4.3 9.6-9.2zm-50.9 18.4c-.3-5.1-6.2-9-12.9-8.8s-12.2 4.1-12.2 9.2 5.8 9.2 12.9 9.1 12.6-4.4 12.2-9.5z"/><path d="M184.1 90.1c-1.6-11.9-16.5-20.8-31.2-20.4s-25.8 9.3-25.4 20.9 13.3 21.3 29.2 21.3 29-9.9 27.4-21.8zm-49.3 34.2c.1-2.9-3-5.3-6.9-5.3s-7.2 2.3-7.2 5.2 2.9 5.3 6.8 5.3 7.2-2.3 7.3-5.2zm-25.9 12.2c.1-2.8-3-5.1-6.9-5.2s-7 2.3-7 5.1 3.1 5.1 6.9 5.1 6.9-2.1 7-5zm-26 6.7c-.1-2.7-3.3-5-7.1-5.1s-6.8 2.2-6.6 4.9 3.4 4.9 7.1 5 6.6-2.1 6.6-4.8z"/></g><circle cx="107.4" cy="109.3" r="88.6" fill="none" stroke="#021d49" stroke-miterlimit="10" stroke-width="6"/></symbol><symbol id="orbiting" viewBox="0 0 216 216"><path fill="none" stroke="#021d49" stroke-linecap="round" stroke-linejoin="round" stroke-width="5.37" d="M165.5 94a65.8 65.8 0 0 1-128.1 21.5A64.3 64.3 0 0 1 33.8 94a65.9 65.9 0 1 1 131.7 0z"/><path fill="#021d49" stroke="#021d49" stroke-linecap="round" stroke-linejoin="round" stroke-width="5.37" d="M92 119.4s-28.1 14.3-54.6-3.9c0 0 7.9 27.2 34.4 38.2 0 0 41.4 4 46.1-8.4s33.4-10.4 33.4-10.4l9.3-16s-53.3-14.8-68.6.5z"/><path fill="#021d49" stroke="#021d49" stroke-linecap="round" stroke-linejoin="round" stroke-width="5.35" d="M37.7 74.2s32-19.7 63.8-9.9 50.1-11 50.1-11 9.5 15.6 10.9 20.9S157.5 90 146 94s-52.6-10.9-67.8-2.8S34.7 94 34.7 94s-.9-13.1 3-19.8zm30.8-38.3a40.5 40.5 0 0 0 32.6 9.5c19.8-3 20.7-13.5 20.7-13.5s-27.2-10.3-53.3 4z"/><circle cx="166.2" cy="167.8" r="16" fill="#021d49" stroke="#021d49" stroke-linecap="round" stroke-linejoin="round" stroke-width="5.71"/><circle cx="60.1" cy="178.7" r="7.6" fill="#021d49" stroke="#021d49" stroke-linecap="round" stroke-linejoin="round" stroke-width="2.71"/></symbol><symbol id="surfing" viewBox="0 0 216 216"><defs><clipPath id="a"><path fill="#021d49" stroke="#021d49" stroke-miterlimit="10" stroke-width="2.65" d="M187.5 52.8a7.1 7.1 0 0 0-3.5-4.6c-5.1-2.6-19.4-4.1-56 18l-17.8 11.7s-38 25.2-51 48.3l7.3 11.1s21 1.1 74.5-34.1l14.3-9.4s35.8-24.5 32.2-41z"/></clipPath></defs><path fill="#021d49" d="M187.5 52.8a7.1 7.1 0 0 0-3.5-4.6c-5.1-2.6-19.4-4.1-56 18l-17.8 11.7s-38 25.2-51 48.3l7.3 11.1s21 1.1 74.5-34.1l14.3-9.4s35.8-24.5 32.2-41z"/><g clip-path="url(#a)"><path fill="none" stroke="#fff" stroke-miterlimit="10" stroke-width=".88" d="M187.5 52.8a7.1 7.1 0 0 0-3.5-4.6c-5.1-2.6-19.4-4.1-56 18l-17.8 11.7s-38 25.2-51 48.3l7.3 11.1s21 1.1 74.5-34.1l14.3-9.4s35.8-24.5 32.2-41z"/><path fill="#fff" d="M59.457 130.73L186.56 46.282l3.276 4.931-127.103 84.448z"/></g><path fill="none" stroke="#021d49" stroke-miterlimit="10" stroke-width="2.65" d="M187.5 52.8a7.1 7.1 0 0 0-3.5-4.6c-5.1-2.6-19.4-4.1-56 18l-17.8 11.7s-38 25.2-51 48.3l7.3 11.1s21 1.1 74.5-34.1l14.3-9.4s35.8-24.5 32.2-41z"/><path fill="#021d49" stroke="#021d49" stroke-linecap="round" stroke-linejoin="round" stroke-width="1.77" d="M58.5 132.1l-41.5 24m44.2-19.4l-33.9 19.6"/><path fill="#021d49" d="M37.8 20.8l3 5.5 5.6 3.1-5.6 3.1-3 5.5-3.1-5.5-5.6-3.1 5.6-3.1 3.1-5.5zm26.8 37.3l3.1 5.6 5.6 3.1-5.6 3-3.1 5.6-3-5.6-5.6-3 5.6-3.1 3-5.6zm40.2-41.5l3.1 5.6 5.6 3.1-5.6 3-3.1 5.6-3-5.6-5.6-3 5.6-3.1 3-5.6zM71.5 164l3 5.5 5.6 3.1-5.6 3.1-3 5.5-3.1-5.5-5.6-3.1 5.6-3.1 3.1-5.5zm113.7-49.3l3.1 5.5 5.6 3.1-5.6 3-3.1 5.6-3-5.6-5.6-3 5.6-3.1 3-5.5zm-61.7 40.6l3 5.6 5.6 3.1-5.6 3-3 5.6-3.1-5.6-5.6-3 5.6-3.1 3.1-5.6zm44.4 25.9l3.1 5.6 5.6 3.1-5.6 3-3.1 5.6-3-5.6-5.6-3 5.6-3.1 3-5.6z"/></symbol><symbol id="take-off" viewBox="0 0 216 216"><path fill="none" stroke="#021d49" stroke-linecap="round" stroke-linejoin="round" stroke-width="3.02" d="M125.4 127.3L81.1 99.7l17.6-28.3 24.2-38.8 44.3 27.6-41.8 67.1z"/><path fill="#021d49" stroke="#021d49" stroke-linecap="round" stroke-linejoin="round" stroke-width="3.02" d="M62.8 88.4l44.6-31-26.3 42.3-18.3-11.3z"/><path fill="none" stroke="#021d49" stroke-linecap="round" stroke-linejoin="round" stroke-width="3.02" d="M143.6 138.7l8.1-53.7-26.3 42.3 18.2 11.4zm-55.8-34.8l-17.3 18.7L90 134.7l13.2-21.2-15.4-9.6z"/><path fill="#021d49" stroke="#021d49" stroke-linecap="round" stroke-linejoin="round" stroke-width="3.02" d="M118.6 123.1l-9.1 23.7L90 134.7l13.2-21.2 15.4 9.6zm4.3-90.5l31.4-15.4a9 9 0 0 1 12.9 8v35z"/><circle cx="132.5" cy="66.5" r="11.5" fill="#021d49" stroke="#021d49" stroke-linecap="round" stroke-linejoin="round" stroke-width="3.02"/><path fill="none" stroke="#021d49" stroke-linecap="round" stroke-linejoin="round" stroke-width="3.02" d="M84.5 143.5L49 199.7m14.6-66.1l-14.8 23.5m51.7 4l-23.3 37.1"/></symbol><symbol id="twitter-dark" viewBox="0 0 216 216"><circle cx="108" cy="108" r="101.7" fill="#021d49"/><path fill="#fff" d="M164.6 61.9s8.7-1 19.2-7.2a30.3 30.3 0 0 1-13.3 16.8 59.2 59.2 0 0 0 17.2-4.8s-4.6 7.9-15 15.6c0 0 2.3 30.7-17.3 56.2 0 0-42.7 61-114.8 20.1 0 0 24.7 3.8 44.7-12.6 0 0-21 .7-28-20.9 0 0 7.4 1.5 13.3-.6 0 0-24-4.6-24-29.9a28.3 28.3 0 0 0 13.6 3.5S37.5 84 50.9 58c0 0 22.5 30.4 62.2 31.4 0 0-5.9-21.9 15.8-33.4s35.7 5.9 35.7 5.9z"/></symbol><symbol id="twitter-light" viewBox="0 0 216 216"><circle cx="108" cy="108" r="101.7" fill="#fff"/><path fill="#021d49" d="M164.6 61.9s8.7-1 19.2-7.2a30.3 30.3 0 0 1-13.3 16.8 59.2 59.2 0 0 0 17.2-4.8s-4.6 7.9-15 15.6c0 0 2.3 30.7-17.3 56.2 0 0-42.7 61-114.8 20.1 0 0 24.7 3.8 44.7-12.6 0 0-21 .7-28-20.9 0 0 7.4 1.5 13.3-.6 0 0-24-4.6-24-29.9a28.3 28.3 0 0 0 13.6 3.5S37.5 84 50.9 58c0 0 22.5 30.4 62.2 31.4 0 0-5.9-21.9 15.8-33.4s35.7 5.9 35.7 5.9z"/></symbol></svg>