<svg xmlns="http://www.w3.org/2000/svg"><symbol id="boarding" viewBox="0 0 216 216"><path fill="none" stroke="#021d49" stroke-linecap="round" stroke-linejoin="round" stroke-width="3.02" d="M111.7 152l-52.2-.1.1-33.4.1-45.7 52.2.2-.2 79z"/><path fill="#021d49" stroke="#021d49" stroke-linecap="round" stroke-linejoin="round" stroke-width="3.02" d="M38 151.8L59.6 102l-.1 49.9-21.5-.1z"/><path fill="none" stroke="#021d49" stroke-linecap="round" stroke-linejoin="round" stroke-width="3.02" d="M133.1 152.1l-21.3-50-.1 49.9 21.4.1zm-65.7-.2l-4.9 24.9 23 .1.1-25H67.4z"/><path fill="#021d49" stroke="#021d49" stroke-linecap="round" stroke-linejoin="round" stroke-width="3.02" d="M103.7 152l4.7 24.9H85.5l.1-25 18.1.1zm-44-79.2l18.5-29.7a9 9 0 0 1 15.3.1L111.9 73z"/><circle cx="85.7" cy="96.5" r="11.5" fill="#021d49" stroke="#021d49" stroke-linecap="round" stroke-linejoin="round" stroke-width="3.02"/><path fill="#021d49" stroke="#021d49" stroke-linecap="round" stroke-linejoin="round" stroke-width="5.33" d="M59.2 106.3l93.6 1.5"/><path fill="#021d49" stroke="#021d49" stroke-linecap="round" stroke-linejoin="round" stroke-width="3.59" d="M153.5 38.9h25.9v138.13h-25.9z"/></symbol><symbol id="email-dark" viewBox="0 0 216 216"><circle cx="108.1" cy="108" r="101.7" fill="#021d49"/><path fill="none" stroke="#fff" stroke-linecap="round" stroke-linejoin="round" stroke-width="5.41" d="M43 66.8h131.5v83.9H43z"/><path fill="none" stroke="#fff" stroke-linecap="round" stroke-linejoin="round" stroke-width="5.41" d="M108.7 108.7L43 150.6h131.5l-65.8-41.9z"/><path fill="#021d49" stroke="#fff" stroke-linecap="round" stroke-linejoin="round" stroke-width="5.41" d="M43 66.8l65.7 47.9 65.8-47.9H43z"/></symbol><symbol id="error" viewBox="0 0 216 216"><circle cx="108.1" cy="105.2" r="101.7" fill="#ac92c5"/><circle cx="108" cy="172.3" r="13.8" fill="#fff"/><path fill="#fff" d="M116.9 138.1c-2.4 9-15.1 9-17.6 0l-12-42.7-9.6-34.6a31.5 31.5 0 0 1 30.4-40 31.5 31.5 0 0 1 30.4 40l-9.6 34.6z"/></symbol><symbol id="email-light" viewBox="0 0 216 216"><circle cx="108" cy="108.7" r="101.7" fill="#fff"/><path fill="#fff" stroke="#021d49" stroke-linecap="round" stroke-linejoin="round" stroke-width="6" d="M42.2 66.8h131.5v83.9H42.2z"/><path fill="#fff" stroke="#021d49" stroke-linecap="round" stroke-linejoin="round" stroke-width="6" d="M108 108.7l-65.8 41.9h131.6L108 108.7z"/><path fill="#fff" stroke="#021d49" stroke-linecap="round" stroke-linejoin="round" stroke-width="6" d="M42.2 66.8l65.8 47.9 65.8-47.9H42.2z"/></symbol><symbol id="facebook-dark" viewBox="0 0 216 216"><circle cx="108" cy="108" r="101.7" fill="#021d49"/><path fill="#fff" d="M118.6 183.1H86.2v-71.7H73.7v-24h12.6V70.3S84 40 115.4 40h26.9v23.9h-14.4s-9.4-.7-9.4 7.3v16.2h22l-2.5 24.1h-19.4z"/></symbol><symbol id="facebook-light" viewBox="0 0 216 216"><circle cx="107.9" cy="108.7" r="101.7" fill="#fff"/><path fill="#021d49" d="M118.5 183.8H86.1v-71.7H73.6v-24h12.6V71s-2.3-30.3 29.1-30.3h27v23.9h-14.5s-9.3-.7-9.3 7.3v16.2h22l-2.6 24.1h-19.4z"/></symbol><symbol id="flying" viewBox="0 0 216 216"><path fill="none" stroke="#021d49" stroke-linecap="round" stroke-linejoin="round" stroke-width="2.81" d="M122.4 164.8L95 124.6l25.7-17.5 35.2-23.9 27.4 40.1-60.9 41.5z"/><path fill="#021d49" stroke="#021d49" stroke-linecap="round" stroke-linejoin="round" stroke-width="2.81" d="M83.8 108.1l49.6-9.6L95 124.6l-11.2-16.5z"/><path fill="none" stroke="#021d49" stroke-linecap="round" stroke-linejoin="round" stroke-width="2.81" d="M133.7 181.3l27.1-42.7-38.4 26.2 11.3 16.5zm-34.5-50.6l-21.7 9.4 12 17.7 19.2-13.1-9.5-14z"/><path fill="#021d49" stroke="#021d49" stroke-linecap="round" stroke-linejoin="round" stroke-width="2.81" d="M118.3 158.7l-16.7 16.8-12.1-17.7 19.2-13.1 9.6 14zm37.6-75.5l32.6-1.4a8.3 8.3 0 0 1 8 11.7l-13.2 29.8z"/><circle cx="151.4" cy="115.6" r="10.7" fill="#021d49" stroke="#021d49" stroke-linecap="round" stroke-linejoin="round" stroke-width="2.81"/><path fill="none" stroke="#021d49" stroke-linecap="round" stroke-linejoin="round" stroke-width="2.64" d="M104.7 46.3a32.4 32.4 0 0 1-62.9 10.6A31.5 31.5 0 0 1 40 46.3a32.4 32.4 0 0 1 64.7 0z"/><path fill="#021d49" stroke="#021d49" stroke-linecap="round" stroke-linejoin="round" stroke-width="2.64" d="M68.6 58.8s-13.8 7-26.8-1.9c0 0 3.9 13.3 16.9 18.7 0 0 20.3 2 22.6-4.1s16.4-5.1 16.4-5.1l4.6-7.8s-26.2-7.3-33.7.2z"/><path fill="#021d49" stroke="#021d49" stroke-linecap="round" stroke-linejoin="round" stroke-width="2.63" d="M41.9 36.6s15.8-9.7 31.4-4.8 24.6-5.4 24.6-5.4 4.7 7.6 5.3 10.2-2.4 7.8-8.1 9.7-25.8-5.3-33.3-1.4-21.3 1.4-21.3 1.4-.4-6.4 1.4-9.7zm15.2-18.8a19.9 19.9 0 0 0 16 4.6c9.7-1.4 10.1-6.6 10.1-6.6s-13.3-5-26.1 2z"/><circle cx="124.5" cy="54.2" r="7.9" fill="#021d49" stroke="#021d49" stroke-linecap="round" stroke-linejoin="round" stroke-width="2.8"/><circle cx="36.3" cy="70.8" r="3.7" fill="#021d49" stroke="#021d49" stroke-linecap="round" stroke-linejoin="round" stroke-width="1.33"/><path fill="none" stroke="#021d49" stroke-linecap="round" stroke-linejoin="round" stroke-width="2.48" d="M80.7 162.9l-44.6 31.5m31.8-45.5L49.4 162m37.9 19.3L57.9 202"/></symbol><symbol id="instagram-dark" viewBox="0 0 216 216"><circle cx="108" cy="108" r="101.7" fill="#021d49"/><rect width="137.5" height="137.46" x="39.3" y="40" fill="#fff" rx="38.1" ry="38.1"/><rect width="113.2" height="113.17" x="51.4" y="52.1" fill="#021d49" rx="27.3" ry="27.3"/><circle cx="108" cy="108.7" r="35.5" fill="#fff"/><circle cx="144.9" cy="72.1" r="8.6" fill="#fff"/><circle cx="108" cy="108.7" r="22.9" fill="#021d49"/></symbol><symbol id="instagram-light" viewBox="0 0 216 216"><circle cx="108" cy="108" r="101.7" fill="#fff"/><rect width="137.5" height="137.46" x="39.2" y="42.2" fill="#021d49" rx="38.1" ry="38.1"/><rect width="113.2" height="113.17" x="51.4" y="54.3" fill="#fff" rx="27.3" ry="27.3"/><circle cx="107.9" cy="110.9" r="35.5" fill="#021d49"/><circle cx="144.9" cy="74.3" r="8.6" fill="#021d49"/><circle cx="107.9" cy="110.9" r="22.9" fill="#fff"/></symbol><symbol id="jupiter" viewBox="0 0 216 216"><circle cx="108" cy="108.1" r="97.7" fill="#eae295"/><path fill="#ddc86e" d="M35.5 173.6s5.4 8.3 51.7 5 74.8 10.9 74.8 10.9l11.9-9.2c-85.6-37.7-152.8-27.4-152.8-27.4s8.1 15.1 14.4 20.7z"/><path fill="#c9a32d" d="M19.4 149.4s36.9-.6 68 2c12.4 1 18.3 1.6 32.1 5.8 18.1 5.6 49.3 18.5 57.4 20.2l8.4-9.5s-30.1-24.8-91.8-31.1c0 0-47.8-3.1-78.2 2.4z"/><path fill="#dd9e27" d="M10.3 108.1s56.2-17.5 138.6 8.5a96.2 96.2 0 0 0 18.1 4c10.9 1.2 26.9 1.8 38.2-2.4 0 0-1.3 23.9-18.2 47.4 0 0-35.2-27-85.3-30.5l-2.9-.3c-7.6-.9-48.6-5.1-84.1 2.6 0 0-4.4-9.8-4.4-29.3z"/><ellipse cx="147.2" cy="143.3" fill="#dc5326" rx="25.4" ry="16.1"/><path fill="#ddc86e" d="M10.3 106.6s46.2-14.7 96.8-3.3 58.9 19.7 98.4 11.8l-.2-16.3s-54.5 2.1-96.1-11.5a149.3 149.3 0 0 0-39.1-7.4c-17.5-.9-41.2.3-58 9.4z"/><path fill="#c9a32d" d="M14.3 80.3s73.8-27.6 184.8-7.5c0 0 5.6 16.3 5.6 20.9a218.1 218.1 0 0 1-65.9-3.9 68.8 68.8 0 0 1-8.9-2.4c-12.8-4.2-61-17.6-116.5-3.7z"/><path fill="#f1af4b" d="M24.7 56.9s30.7-18.5 97.1-13.5S185 48 185 48s-11.1-13.5-19.7-19c0 0-92.6-3.1-129.8 13.6z"/><path fill="#dd9e27" d="M15.9 75.5S88.8 47.9 197.1 68a96.4 96.4 0 0 0-9.7-16.8s-20.8 1.4-75.2-3.5c-32-2.9-65-.6-89.7 13.1z"/><path fill="#ddc86e" d="M43 35.1s52.2-18.9 113.2-12c0 0-22.6-15.9-60.3-12 0 0-30.2 3-52.9 24z"/><path fill="#f1af4b" d="M40.6 178.9s17.7 6.3 65.9 3c0 0 27.2-1.5 53.3 9.1 0 0-6.6 3.9-9.5 5.2 0 0-20.5-2.5-57.1.6l-2.1.3c-2.9.3-13.3 1.2-29.9-3.2a94.8 94.8 0 0 1-20.6-15z"/></symbol><symbol id="mars" viewBox="0 0 216 216"><circle cx="108" cy="108.1" r="70.6" fill="#f47c53"/><path fill="#f15f47" d="M41.1 85.6s10.7 38.8 51.3 51.5 54.8 29.7 54.8 29.7-45.9 31.4-90.6-10.3c0 0-28.8-26.2-15.5-70.9z"/><path fill="#f15f47" d="M79.2 43.6s15.2 24.8 38.4 38.6a60.1 60.1 0 0 0 17.5 6.8c10.7 2.5 34.4 9.2 43.5 22.8 0 0-.4 22.9-14.8 39.6 0 0-115.5-14.5-110.1-88.4 0 0 11-14.2 25.5-19.4z"/><path fill="#f15f47" d="M99.7 37.5s-10.2 37.3 76.7 53.2c0 0-4.5-25.3-32.5-43.4 0 0-16.8-11.5-44.2-9.8z"/></symbol><symbol id="moon" viewBox="0 0 216 216"><circle cx="108" cy="108" r="54.8" fill="#d1d3d4"/><path fill="#a7a9ac" d="M118.2 54.1s26.7 60.3-39 100.6c0 0 24.1 17.3 55.2 1.4 0 0 42.1-20.8 23.8-70.2 0 0-9.9-26-40-31.8z"/><circle cx="75.2" cy="100.3" r="4.1" fill="#a7a9ac"/><circle cx="80.1" cy="144.5" r="4.1" fill="#a7a9ac"/><circle cx="100.6" cy="138.3" r="4.1" fill="#a7a9ac"/><circle cx="114" cy="68" r="4.1" fill="#a7a9ac"/><circle cx="95.7" cy="79.2" r="1.4" fill="#a7a9ac"/><circle cx="78.7" cy="68.6" r="1.4" fill="#a7a9ac"/><circle cx="88.6" cy="100.3" r="1.4" fill="#a7a9ac"/><circle cx="117.1" cy="100.3" r="1.4" fill="#a7a9ac"/><circle cx="122.1" cy="114.1" r="1.4" fill="#a7a9ac"/><circle cx="69.6" cy="87.1" r="1.4" fill="#a7a9ac"/><circle cx="97.2" cy="114.4" r="8.6" fill="#a7a9ac"/><circle cx="123.6" cy="85.5" r="8.6" fill="#a7a9ac"/><circle cx="73.6" cy="130.5" r=".8" fill="#a7a9ac"/><circle cx="84.6" cy="131.4" r=".8" fill="#a7a9ac"/><circle cx="74.6" cy="118.6" r=".8" fill="#a7a9ac"/><circle cx="103.8" cy="91.4" r=".8" fill="#a7a9ac"/><circle cx="108.6" cy="125.3" r=".6" fill="#a7a9ac"/><circle cx="23.7" cy="95.2" r=".9" fill="#a7a9ac"/><circle cx="61" cy="118.5" r="4.4" fill="#a7a9ac"/><circle cx="95.7" cy="63.9" r="4.4" fill="#a7a9ac"/></symbol><symbol id="nav" viewBox="0 0 216 216"><path fill="#021d49" d="M25.6 33.6h165.1v25.78H25.6zm0 64.4h165.1v25.78H25.6zm0 60h165.1v25.78H25.6z"/></symbol><symbol id="surfing" viewBox="0 0 216 216"><defs><clipPath id="a"><path fill="#021d49" stroke="#021d49" stroke-miterlimit="10" stroke-width="2.65" d="M187.5 52.8a7.1 7.1 0 0 0-3.5-4.6c-5.1-2.6-19.4-4.1-56 18l-17.8 11.7s-38 25.2-51 48.3l7.3 11.1s21 1.1 74.5-34.1l14.3-9.4s35.8-24.5 32.2-41z"/></clipPath></defs><path fill="#021d49" d="M187.5 52.8a7.1 7.1 0 0 0-3.5-4.6c-5.1-2.6-19.4-4.1-56 18l-17.8 11.7s-38 25.2-51 48.3l7.3 11.1s21 1.1 74.5-34.1l14.3-9.4s35.8-24.5 32.2-41z"/><g clip-path="url(#a)"><path fill="none" stroke="#fff" stroke-miterlimit="10" stroke-width=".88" d="M187.5 52.8a7.1 7.1 0 0 0-3.5-4.6c-5.1-2.6-19.4-4.1-56 18l-17.8 11.7s-38 25.2-51 48.3l7.3 11.1s21 1.1 74.5-34.1l14.3-9.4s35.8-24.5 32.2-41z"/><path fill="#fff" d="M59.457 130.73L186.56 46.282l3.276 4.931-127.103 84.448z"/></g><path fill="none" stroke="#021d49" stroke-miterlimit="10" stroke-width="2.65" d="M187.5 52.8a7.1 7.1 0 0 0-3.5-4.6c-5.1-2.6-19.4-4.1-56 18l-17.8 11.7s-38 25.2-51 48.3l7.3 11.1s21 1.1 74.5-34.1l14.3-9.4s35.8-24.5 32.2-41z"/><path fill="#021d49" stroke="#021d49" stroke-linecap="round" stroke-linejoin="round" stroke-width="1.77" d="M58.5 132.1l-41.5 24m44.2-19.4l-33.9 19.6"/><path fill="#021d49" d="M37.8 20.8l3 5.5 5.6 3.1-5.6 3.1-3 5.5-3.1-5.5-5.6-3.1 5.6-3.1 3.1-5.5zm26.8 37.3l3.1 5.6 5.6 3.1-5.6 3-3.1 5.6-3-5.6-5.6-3 5.6-3.1 3-5.6zm40.2-41.5l3.1 5.6 5.6 3.1-5.6 3-3.1 5.6-3-5.6-5.6-3 5.6-3.1 3-5.6zM71.5 164l3 5.5 5.6 3.1-5.6 3.1-3 5.5-3.1-5.5-5.6-3.1 5.6-3.1 3.1-5.5zm113.7-49.3l3.1 5.5 5.6 3.1-5.6 3-3.1 5.6-3-5.6-5.6-3 5.6-3.1 3-5.5zm-61.7 40.6l3 5.6 5.6 3.1-5.6 3-3 5.6-3.1-5.6-5.6-3 5.6-3.1 3.1-5.6zm44.4 25.9l3.1 5.6 5.6 3.1-5.6 3-3.1 5.6-3-5.6-5.6-3 5.6-3.1 3-5.6z"/></symbol><symbol id="take-off" viewBox="0 0 216 216"><path fill="none" stroke="#021d49" stroke-linecap="round" stroke-linejoin="round" stroke-width="3.02" d="M125.4 127.3L81.1 99.7l17.6-28.3 24.2-38.8 44.3 27.6-41.8 67.1z"/><path fill="#021d49" stroke="#021d49" stroke-linecap="round" stroke-linejoin="round" stroke-width="3.02" d="M62.8 88.4l44.6-31-26.3 42.3-18.3-11.3z"/><path fill="none" stroke="#021d49" stroke-linecap="round" stroke-linejoin="round" stroke-width="3.02" d="M143.6 138.7l8.1-53.7-26.3 42.3 18.2 11.4zm-55.8-34.8l-17.3 18.7L90 134.7l13.2-21.2-15.4-9.6z"/><path fill="#021d49" stroke="#021d49" stroke-linecap="round" stroke-linejoin="round" stroke-width="3.02" d="M118.6 123.1l-9.1 23.7L90 134.7l13.2-21.2 15.4 9.6zm4.3-90.5l31.4-15.4a9 9 0 0 1 12.9 8v35z"/><circle cx="132.5" cy="66.5" r="11.5" fill="#021d49" stroke="#021d49" stroke-linecap="round" stroke-linejoin="round" stroke-width="3.02"/><path fill="none" stroke="#021d49" stroke-linecap="round" stroke-linejoin="round" stroke-width="3.02" d="M84.5 143.5L49 199.7m14.6-66.1l-14.8 23.5m51.7 4l-23.3 37.1"/></symbol><symbol id="twitter-light" viewBox="0 0 216 216"><circle cx="108" cy="108" r="101.7" fill="#fff"/><path fill="#021d49" d="M164.6 61.9s8.7-1 19.2-7.2a30.3 30.3 0 0 1-13.3 16.8 59.2 59.2 0 0 0 17.2-4.8s-4.6 7.9-15 15.6c0 0 2.3 30.7-17.3 56.2 0 0-42.7 61-114.8 20.1 0 0 24.7 3.8 44.7-12.6 0 0-21 .7-28-20.9 0 0 7.4 1.5 13.3-.6 0 0-24-4.6-24-29.9a28.3 28.3 0 0 0 13.6 3.5S37.5 84 50.9 58c0 0 22.5 30.4 62.2 31.4 0 0-5.9-21.9 15.8-33.4s35.7 5.9 35.7 5.9z"/></symbol><symbol id="twitter-dark" viewBox="0 0 216 216"><circle cx="108" cy="108" r="101.7" fill="#021d49"/><path fill="#fff" d="M164.6 61.9s8.7-1 19.2-7.2a30.3 30.3 0 0 1-13.3 16.8 59.2 59.2 0 0 0 17.2-4.8s-4.6 7.9-15 15.6c0 0 2.3 30.7-17.3 56.2 0 0-42.7 61-114.8 20.1 0 0 24.7 3.8 44.7-12.6 0 0-21 .7-28-20.9 0 0 7.4 1.5 13.3-.6 0 0-24-4.6-24-29.9a28.3 28.3 0 0 0 13.6 3.5S37.5 84 50.9 58c0 0 22.5 30.4 62.2 31.4 0 0-5.9-21.9 15.8-33.4s35.7 5.9 35.7 5.9z"/></symbol><symbol id="orbiting" viewBox="0 0 216 216"><path fill="none" stroke="#021d49" stroke-linecap="round" stroke-linejoin="round" stroke-width="5.37" d="M165.5 94a65.8 65.8 0 0 1-128.1 21.5A64.3 64.3 0 0 1 33.8 94a65.9 65.9 0 1 1 131.7 0z"/><path fill="#021d49" stroke="#021d49" stroke-linecap="round" stroke-linejoin="round" stroke-width="5.37" d="M92 119.4s-28.1 14.3-54.6-3.9c0 0 7.9 27.2 34.4 38.2 0 0 41.4 4 46.1-8.4s33.4-10.4 33.4-10.4l9.3-16s-53.3-14.8-68.6.5z"/><path fill="#021d49" stroke="#021d49" stroke-linecap="round" stroke-linejoin="round" stroke-width="5.35" d="M37.7 74.2s32-19.7 63.8-9.9 50.1-11 50.1-11 9.5 15.6 10.9 20.9S157.5 90 146 94s-52.6-10.9-67.8-2.8S34.7 94 34.7 94s-.9-13.1 3-19.8zm30.8-38.3a40.5 40.5 0 0 0 32.6 9.5c19.8-3 20.7-13.5 20.7-13.5s-27.2-10.3-53.3 4z"/><circle cx="166.2" cy="167.8" r="16" fill="#021d49" stroke="#021d49" stroke-linecap="round" stroke-linejoin="round" stroke-width="5.71"/><circle cx="60.1" cy="178.7" r="7.6" fill="#021d49" stroke="#021d49" stroke-linecap="round" stroke-linejoin="round" stroke-width="2.71"/></symbol></svg>