<svg xmlns="http://www.w3.org/2000/svg"><symbol id="boarding" viewBox="0 0 216 216"><path fill="none" stroke="#021d49" stroke-linecap="round" stroke-linejoin="round" stroke-width="3.02" d="M111.7 152l-52.2-.1.1-33.4.1-45.7 52.2.2-.2 79z"/><path fill="#021d49" stroke="#021d49" stroke-linecap="round" stroke-linejoin="round" stroke-width="3.02" d="M38 151.8L59.6 102l-.1 49.9-21.5-.1z"/><path fill="none" stroke="#021d49" stroke-linecap="round" stroke-linejoin="round" stroke-width="3.02" d="M133.1 152.1l-21.3-50-.1 49.9 21.4.1zm-65.7-.2l-4.9 24.9 23 .1.1-25H67.4z"/><path fill="#021d49" stroke="#021d49" stroke-linecap="round" stroke-linejoin="round" stroke-width="3.02" d="M103.7 152l4.7 24.9H85.5l.1-25 18.1.1zm-44-79.2l18.5-29.7a9 9 0 0 1 15.3.1L111.9 73z"/><circle cx="85.7" cy="96.5" r="11.5" fill="#021d49" stroke="#021d49" stroke-linecap="round" stroke-linejoin="round" stroke-width="3.02"/><path fill="#021d49" stroke="#021d49" stroke-linecap="round" stroke-linejoin="round" stroke-width="5.33" d="M59.2 106.3l93.6 1.5"/><path fill="#021d49" stroke="#021d49" stroke-linecap="round" stroke-linejoin="round" stroke-width="3.59" d="M153.5 38.9h25.9v138.13h-25.9z"/></symbol><symbol id="email-dark" viewBox="0 0 216 216"><circle cx="108.1" cy="108" r="101.7" fill="#021d49"/><path fill="none" stroke="#fff" stroke-linecap="round" stroke-linejoin="round" stroke-width="5.41" d="M43 66.8h131.5v83.9H43z"/><path fill="none" stroke="#fff" stroke-linecap="round" stroke-linejoin="round" stroke-width="5.41" d="M108.7 108.7L43 150.6h131.5l-65.8-41.9z"/><path fill="#021d49" stroke="#fff" stroke-linecap="round" stroke-linejoin="round" stroke-width="5.41" d="M43 66.8l65.7 47.9 65.8-47.9H43z"/></symbol><symbol id="facebook-dark" viewBox="0 0 216 216"><circle cx="108" cy="108" r="101.7" fill="#021d49"/><path fill="#fff" d="M118.6 183.1H86.2v-71.7H73.7v-24h12.6V70.3S84 40 115.4 40h26.9v23.9h-14.4s-9.4-.7-9.4 7.3v16.2h22l-2.5 24.1h-19.4z"/></symbol><symbol id="error" viewBox="0 0 216 216"><circle cx="108.1" cy="105.2" r="101.7" fill="#ac92c5"/><circle cx="108" cy="172.3" r="13.8" fill="#fff"/><path fill="#fff" d="M116.9 138.1c-2.4 9-15.1 9-17.6 0l-12-42.7-9.6-34.6a31.5 31.5 0 0 1 30.4-40 31.5 31.5 0 0 1 30.4 40l-9.6 34.6z"/></symbol><symbol id="email-light" viewBox="0 0 216 216"><circle cx="108" cy="108.7" r="101.7" fill="#fff"/><path fill="#fff" stroke="#021d49" stroke-linecap="round" stroke-linejoin="round" stroke-width="6" d="M42.2 66.8h131.5v83.9H42.2z"/><path fill="#fff" stroke="#021d49" stroke-linecap="round" stroke-linejoin="round" stroke-width="6" d="M108 108.7l-65.8 41.9h131.6L108 108.7z"/><path fill="#fff" stroke="#021d49" stroke-linecap="round" stroke-linejoin="round" stroke-width="6" d="M42.2 66.8l65.8 47.9 65.8-47.9H42.2z"/></symbol><symbol id="facebook-light" viewBox="0 0 216 216"><circle cx="107.9" cy="108.7" r="101.7" fill="#fff"/><path fill="#021d49" d="M118.5 183.8H86.1v-71.7H73.6v-24h12.6V71s-2.3-30.3 29.1-30.3h27v23.9h-14.5s-9.3-.7-9.3 7.3v16.2h22l-2.6 24.1h-19.4z"/></symbol><symbol id="jupiter-mars" viewBox="0 0 216 216"><circle cx="119.2" cy="96.1" r="82.9" fill="#eae194"/><path fill="#dcc76e" d="M57.7 151.7s4.5 7 43.9 4.2 63.5 9.3 63.5 9.3l10-7.9c-72.6-31.9-129.6-23.2-129.6-23.2s6.9 12.8 12.2 17.6z"/><path fill="#c9a22d" d="M44.1 131.2s31.2-.6 57.6 1.6c10.5.9 15.5 1.4 27.2 5 15.4 4.7 41.9 15.7 48.8 17.1l7.1-8s-25.6-21.1-77.9-26.5c0 0-40.6-2.6-66.3 2.1z"/><path fill="#de9e27" d="M36.3 96.1s47.7-14.9 117.6 7.2a75.9 75.9 0 0 0 15.4 3.4c9.2 1 22.8 1.5 32.4-2a85 85 0 0 1-15.5 40.2S156.3 122 113.9 119l-2.5-.2c-6.4-.8-41.3-4.4-71.3 2.2 0 0-3.8-8.3-3.8-24.9z"/><ellipse cx="152.5" cy="125.9" fill="#dc5427" rx="21.5" ry="13.6"/><path fill="#dcc76e" d="M36.3 94.8s39.2-12.4 82.1-2.8 50 16.7 83.5 10l-.2-13.8s-46.2 1.8-81.5-9.7a130.1 130.1 0 0 0-33.1-6.4c-14.9-.7-35 .3-49.3 8z"/><path fill="#c9a22d" d="M39.7 72.5s62.7-23.4 156.8-6.4c0 0 4.7 13.8 4.7 17.8a185.4 185.4 0 0 1-55.8-3.3 50.4 50.4 0 0 1-7.6-2.1C127 75 86 63.6 38.9 75.4z"/><path fill="#f1ae4c" d="M48.6 52.7S74.5 37 130.9 41.2s53.6 3.9 53.6 3.9-9.4-11.4-16.7-16.2c0 0-78.5-2.5-110.1 11.6z"/><path fill="#de9e27" d="M41 68.4s61.9-23.4 153.8-6.3a80.9 80.9 0 0 0-8.2-14.3s-17.7 1.2-63.8-3c-27.1-2.4-55.2-.5-76.2 11.2z"/><path fill="#dcc76e" d="M64.1 34.2s44.2-16 96-10.2c0 0-19.2-13.5-51.2-10.2 0 0-25.6 2.6-44.8 20.4z"/><path fill="#f1ae4c" d="M62 156.1s15 5.4 55.9 2.6c0 0 23.1-1.3 45.3 7.7 0 0-5.6 3.3-8.1 4.4 0 0-17.4-2.1-48.5.6l-1.8.2c-2.4.3-11.2 1-25.3-2.7A78.6 78.6 0 0 1 62 156.1z"/><circle cx="72.1" cy="163.1" r="37.6" fill="#f9625a"/><path fill="#e54029" d="M46.3 190.5s10-8.5 32.4 0c0 0 10.3 4.1 15.9 2.8 0 0-10.6 7.3-20.2 7.3a35.7 35.7 0 0 1-28.1-10.1z"/><path fill="#ed3737" d="M44.8 189s15.5-9 38.3 1.5c0 0 9 3.1 12.8 1.8a56.6 56.6 0 0 0 5.1-5.1s-15.8-17.5-60.3-3.4a24 24 0 0 0 4.1 5.2z"/><path fill="#a51414" d="M39.9 182.7s33.6-14.9 63.1 1.8a14.6 14.6 0 0 0 1.3-1.9s-7.8-10-33.5-9-35.8-3.9-35.8-3.9.5 5.2 4.9 13z"/><path fill="#e54029" d="M34.7 167.4s7.9 5.4 44.4 4.8a46.5 46.5 0 0 1 15.3 2.2c4.2 1.3 8.6 3.3 10.9 6.3 0 0 3.4-7.1 3.9-11 0 0-9.8-6.3-41.6-3.6a60 60 0 0 1-16.4-.7c-5.6-1-12.1-2.8-16.5-6.2a52.9 52.9 0 0 0 0 8.2z"/><path fill="#ed3737" d="M34.8 158.3s13.7 9.4 43.2 5.4a59.8 59.8 0 0 1 31.4 4.7 49.4 49.4 0 0 0-.6-13.9s-20.1-9.6-52.9-2a32.1 32.1 0 0 1-4.3.7c-3.8.3-10.7.3-15-2.8a56.9 56.9 0 0 0-1.8 7.9z"/><path fill="#a51414" d="M37.2 149s10.6 4.9 24.9 1.2c22.4-5.8 46.2 2.4 46.2 2.4a53.2 53.2 0 0 0-6.2-12.3s-13-5.6-44.2 2.8a29 29 0 0 1-17-.7h-.2a25.9 25.9 0 0 0-3.5 6.6z"/><path fill="#e54029" d="M41.6 141s7.8 2.7 19.7-.6l4.1-1c6.4-1.2 23.2-3.7 35.2-.9 0 0-4.4-5.1-8.4-7.3 0 0-22.9-7-45.6 4.2 0 0-4 4.2-5 5.6z"/></symbol><symbol id="jupiter-saturn" viewBox="0 0 216 216"><circle cx="126.9" cy="92.2" r="80.1" fill="#eae194"/><path fill="#dcc76e" d="M67.4 145.9s4.5 6.8 42.4 4.1 61.3 9 61.3 9l9.8-7.6c-70.2-30.9-125.2-22.5-125.2-22.5s6.6 12.4 11.7 17z"/><path fill="#c9a22d" d="M54.3 126.1s30.2-.5 55.7 1.6c10.1.8 15 1.3 26.2 4.8 14.9 4.6 40.5 15.1 47.1 16.5l6.9-7.8s-24.7-20.3-75.2-25.5c0 0-39.2-2.5-64.1 2z"/><path fill="#de9e27" d="M46.8 92.2s46.1-14.3 113.6 7a77 77 0 0 0 14.8 3.3c8.9.9 22 1.4 31.3-2a81.7 81.7 0 0 1-14.9 38.9s-28.9-22.2-69.9-25.1l-2.3-.2c-6.3-.7-39.9-4.2-68.9 2.1 0 0-3.7-8-3.7-24z"/><ellipse cx="159" cy="121" fill="#dc5427" rx="20.8" ry="13.2"/><path fill="#dcc76e" d="M46.8 91s37.9-12 79.3-2.7 48.3 16.1 80.6 9.7V84.6s-44.7 1.7-78.8-9.4a124.9 124.9 0 0 0-32-6.1c-14.3-.7-33.7.3-47.5 7.7z"/><path fill="#c9a22d" d="M50.1 69.5s60.5-22.6 151.4-6.2c0 0 4.6 13.3 4.6 17.1a180.9 180.9 0 0 1-54-3.1c-2.4-.6-4.9-1.2-7.3-2-10.5-3.4-50-14.4-95.5-3.1z"/><path fill="#f1ae4c" d="M58.6 50.3s25.1-15.2 79.6-11.1S190 43 190 43s-9.1-11-16.2-15.6c0 0-75.9-2.5-106.3 11.2z"/><path fill="#de9e27" d="M51.4 65.5s59.8-22.6 148.5-6.1a85.6 85.6 0 0 0-8-13.8s-17 1.1-61.6-2.9c-26.2-2.3-53.3-.5-73.5 10.8z"/><path fill="#dcc76e" d="M73.6 32.4s42.7-15.4 92.7-9.8c0 0-18.5-13.1-49.4-9.8 0 0-24.7 2.4-43.3 19.6z"/><path fill="#f1ae4c" d="M71.6 150.2s14.5 5.2 54 2.5c0 0 22.3-1.3 43.7 7.4 0 0-5.4 3.2-7.8 4.3 0 0-16.7-2.1-46.8.5l-1.7.2c-2.3.3-10.9 1-24.5-2.6a77.4 77.4 0 0 1-16.9-12.3z"/><circle cx="84.5" cy="143.5" r="55.2" fill="#a88a0e"/><path fill="#d3ad0f" d="M63.1 194.4a110.7 110.7 0 0 0 48.8-3 51.8 51.8 0 0 0 13-10.2S98.1 197 50.6 187a49.8 49.8 0 0 0 12.5 7.4z"/><path fill="#ffde1a" d="M48.8 185.5s40.1 10.5 77.6-6a107.9 107.9 0 0 0 6.9-10 144.9 144.9 0 0 1-51.2-.6c-27.9-5.3-48.5-4.1-48.5-4.1s4.9 12.7 15.2 20.7z"/><path fill="#eac31c" d="M32.7 162.5s20.1-.9 49.5 4.8a156.3 156.3 0 0 0 38.6 2.8c5.8-.4 10.9-1.1 13.4-2.4a52.8 52.8 0 0 0 4.5-13.6s-21.4-10.2-107.8 2.7a55.5 55.5 0 0 0 1.8 5.7z"/><path fill="#ffde1a" d="M30.7 155.7s62-13.9 108.4-3.8c0 0 2.6-10.4-2-25.5 0 0-21 7.5-58.5 0s-45-4.3-45-4.3-6.9 13.1-2.9 33.6z"/><path fill="#efc100" d="M34.1 121s14.7-2.9 47.5 4.6a129.4 129.4 0 0 0 24 3.2c10 .3 22.6-.2 31-3.8 0 0-3.2-8.9-7.3-13.9 0 0-23 7.3-45.9 0s-39.2-5.4-39.2-5.4-6.9 7.2-10.1 15.3z"/><path fill="#d3ad0f" d="M45.5 104.4s15-1.8 38 5.3c0 0 24.2 7.7 44.8 0 0 0-2.1-2.6-6.4-6.9 0 0-10.3 5.8-38.7.4a33.7 33.7 0 0 1-3.4-.9 132 132 0 0 0-25-5.4s-6.6 4.6-9.3 7.5z"/><path fill="#ffde1a" d="M57.1 95.5s28.7 7.5 35.4 7.5 17.4 2.3 27.5-1.8a47 47 0 0 0-16.7-9.7s-12.6 5.5-35.7-.6c0 0-8.1 3.2-10.5 4.6z"/><path fill="none" stroke="#ffe876" stroke-linecap="round" stroke-miterlimit="10" stroke-width="4.46" d="M8.7 207.2L161 77.7"/></symbol><symbol id="jupiter" viewBox="0 0 216 216"><circle cx="107.9" cy="109.4" r="97.7" fill="#eae194"/><path fill="#dcc76e" d="M35.4 174.9s5.4 8.4 51.7 5 74.9 11 74.9 11l11.8-9.3c-85.6-37.7-152.7-27.4-152.7-27.4s8.1 15.1 14.3 20.7z"/><path fill="#c9a22d" d="M19.4 150.8s36.8-.7 68 1.9c12.3 1 18.2 1.6 32 5.9 18.1 5.5 49.3 18.4 57.5 20.1l8.3-9.5s-30.1-24.8-91.7-31.1c0 0-47.9-3.1-78.2 2.5z"/><path fill="#de9e27" d="M10.2 109.4s56.3-17.5 138.7 8.5a92.9 92.9 0 0 0 18.1 4c10.8 1.2 26.9 1.8 38.2-2.4 0 0-1.4 23.9-18.2 47.4 0 0-35.3-27-85.4-30.5l-2.8-.2c-7.6-.9-48.7-5.2-84.1 2.5 0 0-4.5-9.7-4.5-29.3z"/><ellipse cx="147.2" cy="144.6" fill="#dc5427" rx="25.4" ry="16.1"/><path fill="#dcc76e" d="M10.2 107.9s46.2-14.6 96.8-3.3 59 19.7 98.4 11.8l-.2-16.2s-54.5 2-96.1-11.5a152.1 152.1 0 0 0-39-7.5c-17.5-.9-41.2.3-58 9.4z"/><path fill="#c9a22d" d="M14.2 81.6s73.9-27.5 184.9-7.5c0 0 5.5 16.3 5.5 20.9a219.2 219.2 0 0 1-65.8-3.8 90.2 90.2 0 0 1-8.9-2.5C117.1 84.6 68.8 71.1 13.3 85z"/><path fill="#f1ae4c" d="M24.7 58.3s30.6-18.5 97.1-13.5 63.2 4.5 63.2 4.5-11.1-13.4-19.8-19c0 0-92.6-3-129.7 13.6z"/><path fill="#de9e27" d="M15.8 76.8s73-27.6 181.3-7.4a103.3 103.3 0 0 0-9.7-16.9s-20.9 1.4-75.3-3.5c-31.9-2.9-64.9-.6-89.7 13.2z"/><path fill="#dcc76e" d="M43 36.4s52.1-18.8 113.1-12c0 0-22.6-15.9-60.3-11.9 0 0-30.1 3-52.8 23.9z"/><path fill="#f1ae4c" d="M40.5 180.2s17.8 6.3 66 3.1c0 0 27.2-1.6 53.3 9 0 0-6.6 3.9-9.5 5.2 0 0-20.5-2.5-57.2.6l-2.1.3c-2.8.3-13.2 1.2-29.8-3.2a96.7 96.7 0 0 1-20.7-15z"/></symbol><symbol id="mars" viewBox="0 0 216 216"><circle cx="107.9" cy="109.4" r="70.6" fill="#f9625a"/><path fill="#e54029" d="M59.6 160.9s18.8-16 60.8 0c0 0 19.2 7.6 29.7 5.1 0 0-19.7 13.9-37.7 13.9 0 0-29.7 4-52.8-19z"/><path fill="#ed3737" d="M56.7 158s29.2-16.8 71.9 2.9c0 0 16.8 5.8 23.9 3.3a95.2 95.2 0 0 0 9.6-9.5s-29.5-32.8-113.1-6.4a51.3 51.3 0 0 0 7.7 9.7z"/><path fill="#a51414" d="M47.7 146.2s62.9-28 118.3 3.5c0 0 1.9-2.8 2.3-3.7s-14.6-18.7-62.8-16.9-67.1-7.3-67.1-7.3 1 9.7 9.3 24.4z"/><path fill="#e54029" d="M37.8 117.6s14.7 10.1 83.3 9a90.1 90.1 0 0 1 28.7 4c7.8 2.5 16.1 6.4 20.5 12 0 0 6.3-13.5 7.2-20.8 0 0-18.4-11.8-78-6.6a116.8 116.8 0 0 1-30.7-1.3c-10.5-1.9-22.7-5.4-31.1-11.8 0 0-.6 10.5.1 15.5z"/><path fill="#ed3737" d="M37.9 100.5s25.7 17.5 81.2 10.1c32.3-4.3 58.7 8.9 58.7 8.9s1.5-10-1.1-26.2c0 0-37.6-18-99.2-3.7a70.2 70.2 0 0 1-8 1.3c-7.2.5-20 .5-28-5.3a106.1 106.1 0 0 0-3.6 14.9z"/><path fill="#a51414" d="M42.5 83s19.9 9.2 46.8 2.3c42-10.9 86.5 4.5 86.5 4.5a97.3 97.3 0 0 0-11.6-23s-24.3-10.6-83 5.1a53.9 53.9 0 0 1-31.8-1.2H49A49.4 49.4 0 0 0 42.5 83z"/><path fill="#e54029" d="M50.8 68s14.5 5.2 36.9-1.1c2.5-.7 5-1.3 7.6-1.8 12.1-2.2 43.6-7 66.1-1.8 0 0-8.2-9.5-15.8-13.6 0 0-43-13.3-85.5 7.8 0 0-7.5 7.9-9.3 10.5z"/></symbol><symbol id="moon" viewBox="0 0 216 216"><circle cx="107.9" cy="110.7" r="54.8" fill="#d0d2d3"/><path fill="#a6a8ab" d="M118.1 56.8s26.8 60.2-38.9 100.5c0 0 24 17.3 55.1 1.4 0 0 42.1-20.8 23.8-70.1 0 0-9.9-26-40-31.8z"/><circle cx="75.1" cy="103" r="4.1" fill="#a6a8ab"/><circle cx="80.1" cy="147.2" r="4.1" fill="#a6a8ab"/><circle cx="100.5" cy="140.9" r="4.1" fill="#a6a8ab"/><circle cx="114" cy="70.6" r="4.1" fill="#a6a8ab"/><circle cx="95.6" cy="81.8" r="1.4" fill="#a6a8ab"/><circle cx="78.6" cy="71.3" r="1.4" fill="#a6a8ab"/><circle cx="88.6" cy="103" r="1.4" fill="#a6a8ab"/><circle cx="117" cy="103" r="1.4" fill="#a6a8ab"/><circle cx="122.1" cy="116.8" r="1.4" fill="#a6a8ab"/><circle cx="69.6" cy="89.7" r="1.4" fill="#a6a8ab"/><circle cx="97.2" cy="117" r="8.6" fill="#a6a8ab"/><circle cx="123.5" cy="88.1" r="8.6" fill="#a6a8ab"/><circle cx="73.5" cy="133.2" r=".8" fill="#a6a8ab"/><circle cx="84.6" cy="134" r=".8" fill="#a6a8ab"/><circle cx="74.5" cy="121.3" r=".8" fill="#a6a8ab"/><circle cx="103.8" cy="94.1" r=".8" fill="#a6a8ab"/><circle cx="108.6" cy="127.9" r=".6" fill="#a6a8ab"/><circle cx="60.9" cy="121.2" r="4.4" fill="#a6a8ab"/><circle cx="95.6" cy="66.5" r="4.4" fill="#a6a8ab"/></symbol><symbol id="neptune-uranus" viewBox="0 0 216 216"><circle cx="76.9" cy="77.1" r="66.4" fill="#0051e0"/><path fill="#0b72d8" d="M50.4 137.9s21 5.4 55.3-1c0 0 8.8-4.3 12-7.5 0 0-12.3-10-33.6-9.6a52 52 0 0 0-14.1 2.3c-8.5 2.6-26.8 7.2-38.8 3.1a62 62 0 0 0 19.2 12.7z"/><path fill="#226ad3" d="M28.5 122.6s18.9 6.1 37.9-3.8 50.4 1.3 54.7 7.8a42.8 42.8 0 0 0 8.8-9.6s-8.6-9.1-25.1-12.7a45.3 45.3 0 0 0-20.4.2c-10.8 2.4-34.2 6.5-65.3 5.3a62.2 62.2 0 0 0 9.4 12.8z"/><path fill="#469fe8" d="M18 107.7s37.5 0 66.9-7a48.2 48.2 0 0 1 46.9 13.7 34.5 34.5 0 0 0 4.5-7.7s-37.5-29.9-121.6-6.3a77.1 77.1 0 0 0 3.3 7.3z"/><path fill="#217bd6" d="M13.9 98.2s60.9-24.8 124 5c0 0 2.1-5.4 3.8-11.8 0 0-13.2-1.3-56.8-11.8a95.8 95.8 0 0 0-14.2-2.5c-12.5-.9-37.9-2.7-60 5 0 0 1.1 10.6 3.2 16.1z"/><path fill="#4190ef" d="M10.5 78.1s38.3-11.5 92.4 2.7c0 0 29.4 9.4 39.5 6.9a64.9 64.9 0 0 0-2.1-30.5s-22-5.3-82.3 4.3c-23.2 3.7-27.7 3.6-46.5 3.9a66 66 0 0 0-1 12.7z"/><ellipse cx="96" cy="68.6" fill="#003acc" rx="12.8" ry="6.8"/><path fill="#0b72d8" d="M12.3 61.8a254.2 254.2 0 0 0 64.6-6.1c35-8.1 62.3-1.5 62.3-1.5s-3-8.5-7-13.9c0 0-26.6-15.3-85.5 4.2 0 0-12.2 3.9-29.7 3.9 0 0-3.7 7.3-4.7 13.4z"/><path fill="#469fe8" d="M18 46.4s15.6 1 38.4-7a111.7 111.7 0 0 1 24.2-5.5c13-1.5 31.3-2.1 48.9 2.6 0 0-7.9-9.9-15-14.1 0 0-36.6-12.3-88.5 12a65.4 65.4 0 0 0-8 12z"/><path fill="#4190ef" d="M31 29.1S69.3 13 107.5 18.2c0 0-19.5-11.4-45.9-5.7A64.2 64.2 0 0 0 31 29.1z"/><circle cx="131.4" cy="138.7" r="60.4" fill="#11c1c1"/><path fill="#5affef" d="M100.3 190.5s23.5 2.8 43.1-3.7 29-3.6 29-3.6-9.9 9.3-19.5 12.1c0 0-11.8 5-39.4 1.2 0 0-3.8-.6-13.2-6z"/><path fill="#3cefe6" d="M97.6 188.8s19.6 2.9 37.3-3.3c0 0 24.8-8.9 39.7-4.4 0 0 6.3-7.1 8.6-11.1 0 0-21.9-13.6-71 7.4 0 0-13.4 5.2-18.6 8.4a37.6 37.6 0 0 0 4 3z"/><path fill="#73f9f2" d="M72.8 153.5s12.1-18.5 53.8-13.2c55.2 6.9 65.3.6 65.3.6s0 9.4-2.7 15.8c0 0-21.9-5.7-52-1.1a78.3 78.3 0 0 0-11.6 2.8c-10.8 3.5-34.9 11.6-42 17.3 0 0-8-10-10.8-22.2z"/><path fill="#00e5d4" d="M84.9 177.3s49-33.1 103.4-17.9a47.5 47.5 0 0 1-4.2 9.1s-26.3-17.9-92.2 15.9c0 0-2.8-1.9-7-7.1z"/><path fill="#3cefe6" d="M72.3 151s14.8-19.8 67.1-11.3a129.1 129.1 0 0 0 21.5 1.8c9.2.1 21-.5 31-2.8 0 0 1-11.6-6.4-27.1 0 0-2.6 16.4-67.6 8.9l-5.6-.8c-6.1-1.1-23.7-3.6-38.4.4a57.6 57.6 0 0 0-1.6 30.9z"/><path fill="#00e5d4" d="M74.7 117.9a99.1 99.1 0 0 1 41.6-.5c6.2 1.4 20.7 3.8 27 3.6 14.7-.3 38-2.3 41.2-11.3 0 0-1.5-2.7-2.9-4.7 0 0-7.8 18-64.3 7l-4.2-.7c-6.9-.7-26.6-2.3-36.4 1.8a40.2 40.2 0 0 0-2 4.8z"/><path fill="#73f9f2" d="M78 110.5s19.1-5.6 51 1.5a86.6 86.6 0 0 0 29.6 1.4c9.5-1.3 19.1-4.2 21.3-10.8 0 0-5.1-6.8-9.8-10.4 0 0-18.1 14.5-57.3 7.5l-1.6-.3c-3-.7-15.8-3.2-25.8.2 0 0-5.7 6.5-7.4 10.9z"/><path fill="#5affef" d="M87.9 96.8s6.4-3.5 30 1.4a70.3 70.3 0 0 0 35-1.3c5.3-1.6 10.4-3.8 14.2-7a56.7 56.7 0 0 0-21.7-10s.3 6-42.4 5.5a55.3 55.3 0 0 0-15.1 11.4z"/><path fill="none" stroke="#fff" stroke-linecap="round" stroke-miterlimit="10" stroke-width="2.13" d="M67.6 204.7L196.8 75.5"/></symbol><symbol id="instagram-light" viewBox="0 0 216 216"><circle cx="108" cy="108" r="101.7" fill="#fff"/><rect width="137.5" height="137.46" x="39.2" y="42.2" fill="#021d49" rx="38.1" ry="38.1"/><rect width="113.2" height="113.17" x="51.4" y="54.3" fill="#fff" rx="27.3" ry="27.3"/><circle cx="107.9" cy="110.9" r="35.5" fill="#021d49"/><circle cx="144.9" cy="74.3" r="8.6" fill="#021d49"/><circle cx="107.9" cy="110.9" r="22.9" fill="#fff"/></symbol><symbol id="flying" viewBox="0 0 216 216"><path fill="none" stroke="#021d49" stroke-linecap="round" stroke-linejoin="round" stroke-width="2.81" d="M122.4 164.8L95 124.6l25.7-17.5 35.2-23.9 27.4 40.1-60.9 41.5z"/><path fill="#021d49" stroke="#021d49" stroke-linecap="round" stroke-linejoin="round" stroke-width="2.81" d="M83.8 108.1l49.6-9.6L95 124.6l-11.2-16.5z"/><path fill="none" stroke="#021d49" stroke-linecap="round" stroke-linejoin="round" stroke-width="2.81" d="M133.7 181.3l27.1-42.7-38.4 26.2 11.3 16.5zm-34.5-50.6l-21.7 9.4 12 17.7 19.2-13.1-9.5-14z"/><path fill="#021d49" stroke="#021d49" stroke-linecap="round" stroke-linejoin="round" stroke-width="2.81" d="M118.3 158.7l-16.7 16.8-12.1-17.7 19.2-13.1 9.6 14zm37.6-75.5l32.6-1.4a8.3 8.3 0 0 1 8 11.7l-13.2 29.8z"/><circle cx="151.4" cy="115.6" r="10.7" fill="#021d49" stroke="#021d49" stroke-linecap="round" stroke-linejoin="round" stroke-width="2.81"/><path fill="none" stroke="#021d49" stroke-linecap="round" stroke-linejoin="round" stroke-width="2.64" d="M104.7 46.3a32.4 32.4 0 0 1-62.9 10.6A31.5 31.5 0 0 1 40 46.3a32.4 32.4 0 0 1 64.7 0z"/><path fill="#021d49" stroke="#021d49" stroke-linecap="round" stroke-linejoin="round" stroke-width="2.64" d="M68.6 58.8s-13.8 7-26.8-1.9c0 0 3.9 13.3 16.9 18.7 0 0 20.3 2 22.6-4.1s16.4-5.1 16.4-5.1l4.6-7.8s-26.2-7.3-33.7.2z"/><path fill="#021d49" stroke="#021d49" stroke-linecap="round" stroke-linejoin="round" stroke-width="2.63" d="M41.9 36.6s15.8-9.7 31.4-4.8 24.6-5.4 24.6-5.4 4.7 7.6 5.3 10.2-2.4 7.8-8.1 9.7-25.8-5.3-33.3-1.4-21.3 1.4-21.3 1.4-.4-6.4 1.4-9.7zm15.2-18.8a19.9 19.9 0 0 0 16 4.6c9.7-1.4 10.1-6.6 10.1-6.6s-13.3-5-26.1 2z"/><circle cx="124.5" cy="54.2" r="7.9" fill="#021d49" stroke="#021d49" stroke-linecap="round" stroke-linejoin="round" stroke-width="2.8"/><circle cx="36.3" cy="70.8" r="3.7" fill="#021d49" stroke="#021d49" stroke-linecap="round" stroke-linejoin="round" stroke-width="1.33"/><path fill="none" stroke="#021d49" stroke-linecap="round" stroke-linejoin="round" stroke-width="2.48" d="M80.7 162.9l-44.6 31.5m31.8-45.5L49.4 162m37.9 19.3L57.9 202"/></symbol><symbol id="nav" viewBox="0 0 216 216"><path fill="#021d49" d="M25.6 33.6h165.1v25.78H25.6zm0 64.4h165.1v25.78H25.6zm0 60h165.1v25.78H25.6z"/></symbol><symbol id="neptune" viewBox="0 0 216 216"><circle cx="105.8" cy="109.4" r="76.3" fill="#0051e0"/><path fill="#0b72d8" d="M75.3 179.3s24.2 6.2 63.5-1.2c0 0 10.2-4.9 13.9-8.6 0 0-14.1-11.5-38.6-11a60.3 60.3 0 0 0-16.3 2.6c-9.6 3-30.7 8.3-44.5 3.6a72.2 72.2 0 0 0 22 14.6z"/><path fill="#226ad3" d="M50.2 161.7s21.7 7 43.5-4.4 57.9 1.5 62.8 9a50.4 50.4 0 0 0 10.2-11s-9.9-10.5-28.8-14.7a53.2 53.2 0 0 0-23.5.3c-12.4 2.8-39.2 7.4-75 6.1a70.4 70.4 0 0 0 10.8 14.7z"/><path fill="#469fe8" d="M38.1 144.6s43.1 0 76.9-8.1a55.5 55.5 0 0 1 53.9 15.8 41.1 41.1 0 0 0 5.1-8.8s-43.1-34.4-139.6-7.2a86.8 86.8 0 0 0 3.7 8.3z"/><path fill="#217bd6" d="M33.5 133.7s69.9-28.5 142.4 5.7c0 0 2.3-6.1 4.4-13.6 0 0-15.3-1.5-65.3-13.5a113.6 113.6 0 0 0-16.3-2.9c-14.3-1-43.6-3.1-69 5.8 0 0 1.3 12.2 3.8 18.5z"/><path fill="#4190ef" d="M29.5 110.6s44-13.2 106.1 3.1c0 0 33.8 10.8 45.5 8a75.2 75.2 0 0 0-2.5-35.1s-25.2-6.1-94.5 4.9c-26.7 4.3-31.8 4.2-53.4 4.5a71.8 71.8 0 0 0-1.2 14.6z"/><ellipse cx="127.8" cy="99.7" fill="#003acc" rx="14.6" ry="7.8"/><path fill="#0b72d8" d="M31.6 91.8a287.3 287.3 0 0 0 74.2-6.9c40.2-9.3 71.6-1.8 71.6-1.8s-3.5-9.7-8.1-15.9c0 0-30.6-17.5-98.2 4.8 0 0-14 4.5-34.1 4.5 0 0-4.3 8.3-5.4 15.3z"/><path fill="#469fe8" d="M38.1 74.2s18 1.1 44.2-8a119.8 119.8 0 0 1 27.7-6.4c14.9-1.7 36-2.4 56.2 3.1 0 0-9.1-11.4-17.2-16.3 0 0-42-14.1-101.6 13.8 0 0-6.1 7-9.3 13.8z"/><path fill="#4190ef" d="M53.1 54.3S97 35.8 141 41.7c0 0-22.5-13.1-52.8-6.5a74 74 0 0 0-35.1 19.1z"/></symbol><symbol id="instagram-dark" viewBox="0 0 216 216"><circle cx="108" cy="108" r="101.7" fill="#021d49"/><rect width="137.5" height="137.46" x="39.3" y="40" fill="#fff" rx="38.1" ry="38.1"/><rect width="113.2" height="113.17" x="51.4" y="52.1" fill="#021d49" rx="27.3" ry="27.3"/><circle cx="108" cy="108.7" r="35.5" fill="#fff"/><circle cx="144.9" cy="72.1" r="8.6" fill="#fff"/><circle cx="108" cy="108.7" r="22.9" fill="#021d49"/></symbol><symbol id="twitter-dark" viewBox="0 0 216 216"><circle cx="108" cy="108" r="101.7" fill="#021d49"/><path fill="#fff" d="M164.6 61.9s8.7-1 19.2-7.2a30.3 30.3 0 0 1-13.3 16.8 59.2 59.2 0 0 0 17.2-4.8s-4.6 7.9-15 15.6c0 0 2.3 30.7-17.3 56.2 0 0-42.7 61-114.8 20.1 0 0 24.7 3.8 44.7-12.6 0 0-21 .7-28-20.9 0 0 7.4 1.5 13.3-.6 0 0-24-4.6-24-29.9a28.3 28.3 0 0 0 13.6 3.5S37.5 84 50.9 58c0 0 22.5 30.4 62.2 31.4 0 0-5.9-21.9 15.8-33.4s35.7 5.9 35.7 5.9z"/></symbol><symbol id="twitter-light" viewBox="0 0 216 216"><circle cx="108" cy="108" r="101.7" fill="#fff"/><path fill="#021d49" d="M164.6 61.9s8.7-1 19.2-7.2a30.3 30.3 0 0 1-13.3 16.8 59.2 59.2 0 0 0 17.2-4.8s-4.6 7.9-15 15.6c0 0 2.3 30.7-17.3 56.2 0 0-42.7 61-114.8 20.1 0 0 24.7 3.8 44.7-12.6 0 0-21 .7-28-20.9 0 0 7.4 1.5 13.3-.6 0 0-24-4.6-24-29.9a28.3 28.3 0 0 0 13.6 3.5S37.5 84 50.9 58c0 0 22.5 30.4 62.2 31.4 0 0-5.9-21.9 15.8-33.4s35.7 5.9 35.7 5.9z"/></symbol><symbol id="venus-mercury" viewBox="0 0 216 216"><circle cx="85.9" cy="85.8" r="68.5" fill="#f7e69a"/><path fill="#e2bd23" d="M56.1 147.5s33.3-5.8 53.4 2.6c0 0 13.7-5.3 19.2-10.8 0 0-1.3-2.8-17.5-4.8-43.8-5.3-64.9 7.2-64.9 7.2a54.8 54.8 0 0 0 9.8 5.8z"/><path fill="#c49114" d="M44.2 140.2s30.9-18.4 86.9-2.9c0 0 4.9-4.6 7.3-7.5 0 0-21.1-.1-57.8-16.9S27.1 121 27.1 121a83.5 83.5 0 0 0 17.1 19.2z"/><path fill="#eab53d" d="M25.5 118.1s16.8-27.3 67.7-2.6a131.3 131.3 0 0 0 24.9 9.4c7.6 1.9 16 3.3 22.2 2.5 0 0 7.3-10.3 9.5-17.1 0 0-12.9 2.7-73.2-15.4 0 0-28-7.9-57 8.4a67.3 67.3 0 0 0 5.9 14.8z"/><path fill="#e2bd23" d="M150.6 108.1s-12.4 3.4-70.7-13.7a64.9 64.9 0 0 0-14.5-2.6c-11.2-.8-30-.4-46.4 8.8 0 0-2-7-1.4-20.1 0 0 37.1-10.7 70.6 4.2 0 0 47.4 20 64.5 16.3 0 0-1.3 5-2.1 7.1z"/><path fill="#eab53d" d="M17.7 79.5S41 70.9 75 78.8a75.5 75.5 0 0 1 11.4 3.6c14 5.4 56.6 21.3 66.6 16.9 0 0 3.1-13.2-.7-30.4 0 0-9.1 5.6-75.1.3l-5.8-.6c-8.6-1.3-20-1.5-50.5-4.4a80.9 80.9 0 0 0-3.2 15.3z"/><path fill="#e2bd23" d="M21.4 62.5s106.3 13.2 130.5 5.1c0 0-4.5-14.2-9.8-20.9 0 0-10.3-3.9-81.3 9.4 0 0-22.3 3.9-37.2 1.2 0 0-1.8 4.1-2.2 5.2z"/><path fill="#c49114" d="M24.1 56.2s16.1 2.6 62.1-6.6c0 0 38.3-6.5 54.9-4.2a46.2 46.2 0 0 0-11.7-12.5S70.8 26.3 28 49.1c0 0-2.4 3.9-3.9 7.1z"/><path fill="#eab53d" d="M30 46.2S76.6 24.3 127 31a68.9 68.9 0 0 0-19-10s-35.7-4.6-61.3 8.6c0 0-7.7 4.4-16.7 16.6z"/><circle cx="138.3" cy="136.8" r="54.8" fill="#939598"/><path fill="#6d6e71" d="M105.7 180.9s22.8 10.1 48.8 8.3c0 0 8-2.2 13.6-6.3 0 0-9-8.3-37.5-10.6-30.2-2.4-40.4-9.2-40.4-9.2a49.6 49.6 0 0 0 15.5 17.8z"/><path fill="#808285" d="M89.3 161.3s12.2 7.1 47.8 10.3c28 2.4 33.2 9.8 33.2 9.8a39.2 39.2 0 0 0 8.4-7.5s-6.1-6.1-36.2-8.2a267.3 267.3 0 0 1-55.7-10.2s1.6 4.1 2.5 5.8z"/><path fill="#a7a9ac" d="M86.3 154.1s29.2 9.7 55.4 9.7 39 7.8 39 7.8a40.4 40.4 0 0 0 8.6-14.7s-13.5-6.8-43.8-4.1c0 0-36.5 4.1-60.9-5 0 0 1.2 5 1.7 6.3z"/><path fill="#6d6e71" d="M190.1 154.8s-7.3-6.3-65.8-2.5a78.7 78.7 0 0 1-19.4-.9 76.7 76.7 0 0 1-20.8-6.6 63.4 63.4 0 0 1 .3-17.9s17.3-6.9 58.9 8.1a124.4 124.4 0 0 0 13.2 3.9c8 1.3 22 3.8 36.4 3 0 0-.8 8.7-2.8 12.9z"/><path fill="#808285" d="M84.8 125.1s15.3-7.2 59.1 8.3a111 111 0 0 0 23.6 5.5c9.6 1.2 21.4 2.1 25.6.4a50.8 50.8 0 0 0-2.9-20.1s-34.8-13.1-104.6 2.8c0 0-.6 2.1-.8 3.1z"/><path fill="#6d6e71" d="M85.9 120.7s52.6-15.7 103.7-3.3c0 0-3.5-9.8-8.3-14.6 0 0-24.1-6.7-58.1 2.9s-34.8 8.4-34.8 8.4-2.1 5.3-2.5 6.6z"/><path fill="#a7a9ac" d="M89.1 112.8s20.6-4.5 40-10.5a138.8 138.8 0 0 1 50.3-1.8s-5-5.8-10.3-9c0 0-18.3 2.6-34 1.3a231.6 231.6 0 0 0-26.6-2s-11.8 6-19.4 22z"/><path fill="#6d6e71" d="M111.2 89.2s50.2 4.3 55.5.8a53.3 53.3 0 0 0-29.7-8 52 52 0 0 0-25.8 7.2z"/></symbol><symbol id="take-off" viewBox="0 0 216 216"><path fill="none" stroke="#021d49" stroke-linecap="round" stroke-linejoin="round" stroke-width="3.02" d="M125.4 127.3L81.1 99.7l17.6-28.3 24.2-38.8 44.3 27.6-41.8 67.1z"/><path fill="#021d49" stroke="#021d49" stroke-linecap="round" stroke-linejoin="round" stroke-width="3.02" d="M62.8 88.4l44.6-31-26.3 42.3-18.3-11.3z"/><path fill="none" stroke="#021d49" stroke-linecap="round" stroke-linejoin="round" stroke-width="3.02" d="M143.6 138.7l8.1-53.7-26.3 42.3 18.2 11.4zm-55.8-34.8l-17.3 18.7L90 134.7l13.2-21.2-15.4-9.6z"/><path fill="#021d49" stroke="#021d49" stroke-linecap="round" stroke-linejoin="round" stroke-width="3.02" d="M118.6 123.1l-9.1 23.7L90 134.7l13.2-21.2 15.4 9.6zm4.3-90.5l31.4-15.4a9 9 0 0 1 12.9 8v35z"/><circle cx="132.5" cy="66.5" r="11.5" fill="#021d49" stroke="#021d49" stroke-linecap="round" stroke-linejoin="round" stroke-width="3.02"/><path fill="none" stroke="#021d49" stroke-linecap="round" stroke-linejoin="round" stroke-width="3.02" d="M84.5 143.5L49 199.7m14.6-66.1l-14.8 23.5m51.7 4l-23.3 37.1"/></symbol></svg>