<svg xmlns="http://www.w3.org/2000/svg" width="38.4" height="38.4" viewBox="0 0 30.2 30.2"><rect width="30.2" height="30.23" fill="#021d49" rx="15.1" ry="15.1"/><circle cx="9.7" cy="17.1" r="2.5" fill="#fff"/><circle cx="22.1" cy="17.1" r="2.5" fill="#fff"/><circle cx="22.5" cy="17.1" r="2.5" fill="#fff"/><circle cx="16.1" cy="17.1" r="7.5" fill="#fff" stroke="#021d49" stroke-miterlimit="10" stroke-width=".45"/><ellipse cx="16.1" cy="17.1" fill="#021d49" rx="6.1" ry="4.6"/><path fill="none" stroke="#fff" stroke-linecap="round" stroke-linejoin="round" stroke-width=".3" d="M7.6 23.1a10.3 10.3 0 0 1 7.5-17.3 10.3 10.3 0 0 1 9.3 5.7"/><circle cx="4.9" cy="16.4" r=".7" fill="#fff"/><circle cx="5.3" cy="13.4" r=".9" fill="#fff"/><circle cx="6.6" cy="10.5" r=".7" fill="#fff"/><circle cx="13.2" cy="5.9" r="1.5" fill="#fff"/><circle cx="17.4" cy="6.1" r="1.2" fill="#fff"/><circle cx="21.1" cy="7.6" r="1.1" fill="#fff"/><circle cx="5.4" cy="19.1" r=".5" fill="#fff"/><circle cx="9.1" cy="7.8" r="1.8" fill="#fff"/><circle cx="13.2" cy="5.9" r="1.9" fill="none" stroke="#fff" stroke-miterlimit="10" stroke-width=".15"/></svg>