<svg xmlns="http://www.w3.org/2000/svg" width="19.2" height="19.2" viewBox="0 0 16 16"><rect width="14.1" height="14.08" x=".7" y=".9" fill="#021d49" rx="7" ry="7"/><circle cx="5.2" cy="8.9" r="1.2" fill="#fff"/><circle cx="11" cy="8.9" r="1.2" fill="#fff"/><circle cx="11.2" cy="8.9" r="1.2" fill="#fff"/><circle cx="8.2" cy="8.9" r="3.5" fill="#fff" stroke="#021d49" stroke-miterlimit="10" stroke-width=".21"/><ellipse cx="8.2" cy="8.9" fill="#021d49" rx="2.9" ry="2.1"/><path fill="none" stroke="#fff" stroke-linecap="round" stroke-linejoin="round" stroke-width=".14" d="M4.3 11.6A4.6 4.6 0 0 1 3 8.4a4.7 4.7 0 0 1 4.8-4.8 4.8 4.8 0 0 1 4.3 2.7"/><circle cx="3" cy="8.5" r=".3" fill="#fff"/><circle cx="3.2" cy="7.1" r=".4" fill="#fff"/><circle cx="3.8" cy="5.8" r=".3" fill="#fff"/><circle cx="6.9" cy="3.6" r=".7" fill="#fff"/><circle cx="8.8" cy="3.8" r=".5" fill="#fff"/><circle cx="10.5" cy="4.5" r=".5" fill="#fff"/><circle cx="3.2" cy="9.8" r=".2" fill="#fff"/><circle cx="5" cy="4.5" r=".8" fill="#fff"/><circle cx="6.9" cy="3.6" r=".9" fill="none" stroke="#fff" stroke-miterlimit="10" stroke-width=".07"/></svg>