<svg id="Layer_1" data-name="Layer 1" xmlns="http://www.w3.org/2000/svg" width="3in" height="3in" viewBox="0 0 216 216"><title>logo</title><rect x="6.3" y="6.3" width="203.4" height="203.38" rx="101.7" ry="101.7" fill="#021d49"/><circle cx="71.5" cy="121.3" r="17" fill="#fff"/><circle cx="155" cy="121.3" r="17" fill="#fff"/><circle cx="157.9" cy="121.3" r="17" fill="#fff"/><circle cx="114.9" cy="121.3" r="50.7" fill="#fff" stroke="#021d49" stroke-miterlimit="10" stroke-width="3"/><ellipse cx="114.9" cy="121.3" rx="41.2" ry="30.8" fill="#021d49"/><path d="M57.4,161.7A69.2,69.2,0,1,1,170.2,83.8" fill="none" stroke="#fff" stroke-linecap="round" stroke-linejoin="round" stroke-width="2"/><circle cx="38.9" cy="116.5" r="4.9" fill="#fff"/><circle cx="41.6" cy="96.6" r="5.9" fill="#fff"/><circle cx="50.7" cy="77" r="4.9" fill="#fff"/><circle cx="95.3" cy="45.8" r="9.8" fill="#fff"/><circle cx="123.4" cy="47.7" r="7.9" fill="#fff"/><circle cx="148.3" cy="57.7" r="7.1" fill="#fff"/><circle cx="42.3" cy="134.9" r="3.4" fill="#fff"/><circle cx="67.5" cy="59.1" r="11.9" fill="#fff"/><circle cx="95.3" cy="45.8" r="12.7" fill="none" stroke="#fff" stroke-miterlimit="10"/></svg>