<svg xmlns="http://www.w3.org/2000/svg" width="4in" height="4in" viewBox="0 0 288 288"><path fill="#021d49" d="M0 0h288v287.98H0z"/><path fill="#fff" d="M52.9 57.2h176.9v176.89H52.9z"/><path fill="#021d49" d="M206.8 77.4s6 3-1.6 21.6c0 0-.5 1.6-3.1 4.3l-27.8 49.1-.8 5.3v3.8l10.4 34.6a13.5 13.5 0 0 1-2.1 11l-6 8.1-20.3-11.4 5.4-6.7-.8-.6-5.8 6.8-22.5-11.6 7.7-11.1L108 156l-9.4 8.4-16.5-19.5 6-6.2-1-1.1-5.6 7-15.6-18 4.8-4.2s5.3-6.3 11.3-6.1l32.7 4.1 10 .6 4.9-.7 8.9-5.1 25.9-17.4s14.3-14.9 17.1-16 12.9-4.6 12.9-4.6 8.3-2.9 12.4.2z"/><path fill="#021d49" d="M139.9 192.5l-2.2-2-6.3 8.8-14.8 9.8-33.9-30 9.5-16 9.8-6.8-5.1-5.2 1-2.3 5.4-4.4 2.1 1.8s2.8-2.2 2.7-4.9c0 0 16.9-21.6 37.4-6.7s17.5 30.8 17.5 30.8 1.5 9.5-23.1 27.1z"/></svg>