<svg xmlns="http://www.w3.org/2000/svg" width="3.6in" height="3.6in" viewBox="0 0 256 256"><rect width="240.5" height="240.54" x="7.7" y="7.7" fill="#021d49" rx="120.3" ry="120.3"/><circle cx="84.9" cy="143.7" r="20.1" fill="#fff"/><circle cx="183.6" cy="143.7" r="20.1" fill="#fff"/><circle cx="187" cy="143.7" r="20.1" fill="#fff"/><circle cx="136.2" cy="143.7" r="60" fill="#fff" stroke="#021d49" stroke-miterlimit="10" stroke-width="3.55"/><ellipse cx="136.2" cy="143.7" fill="#021d49" rx="48.8" ry="36.4"/><path fill="none" stroke="#fff" stroke-linecap="round" stroke-linejoin="round" stroke-width="2.37" d="M68.2 191.5a81.9 81.9 0 1 1 133.3-92.1"/><circle cx="46.3" cy="138.1" r="5.8" fill="#fff"/><circle cx="49.5" cy="114.5" r="7" fill="#fff"/><circle cx="60.3" cy="91.4" r="5.8" fill="#fff"/><circle cx="113" cy="54.4" r="11.6" fill="#fff"/><circle cx="146.2" cy="56.6" r="9.4" fill="#fff"/><circle cx="175.6" cy="68.5" r="8.4" fill="#fff"/><circle cx="50.3" cy="159.8" r="4" fill="#fff"/><circle cx="80.1" cy="70.1" r="14.1" fill="#fff"/><circle cx="113" cy="54.4" r="15" fill="none" stroke="#fff" stroke-miterlimit="10" stroke-width="1.18"/><rect width="240.5" height="240.54" x="4.3" y="7.7" fill="#021d49" rx="120.3" ry="120.3"/><circle cx="81.5" cy="143.7" r="20.1" fill="#fff"/><circle cx="180.2" cy="143.7" r="20.1" fill="#fff"/><circle cx="183.6" cy="143.7" r="20.1" fill="#fff"/><circle cx="132.8" cy="143.7" r="60" fill="#fff" stroke="#021d49" stroke-miterlimit="10" stroke-width="3.55"/><ellipse cx="132.8" cy="143.7" fill="#021d49" rx="48.8" ry="36.4"/><path fill="none" stroke="#fff" stroke-linecap="round" stroke-linejoin="round" stroke-width="2.37" d="M64.8 191.5a81.9 81.9 0 1 1 133.3-92.1"/><circle cx="42.9" cy="138.1" r="5.8" fill="#fff"/><circle cx="46.1" cy="114.5" r="7" fill="#fff"/><circle cx="56.8" cy="91.4" r="5.8" fill="#fff"/><circle cx="109.6" cy="54.4" r="11.6" fill="#fff"/><circle cx="142.8" cy="56.6" r="9.4" fill="#fff"/><circle cx="172.2" cy="68.5" r="8.4" fill="#fff"/><circle cx="46.9" cy="159.8" r="4" fill="#fff"/><circle cx="76.7" cy="70.1" r="14.1" fill="#fff"/><circle cx="109.6" cy="54.4" r="15" fill="none" stroke="#fff" stroke-miterlimit="10" stroke-width="1.18"/></svg>