<svg xmlns="http://www.w3.org/2000/svg" width="86.4" height="86.4" viewBox="0 0 64 64"><rect width="55.8" height="55.77" x="4" y="4.1" fill="#021d49" rx="27.9" ry="27.9"/><circle cx="21.9" cy="35.6" r="4.7" fill="#fff"/><circle cx="44.8" cy="35.6" r="4.7" fill="#fff"/><circle cx="45.6" cy="35.6" r="4.7" fill="#fff"/><circle cx="33.8" cy="35.6" r="13.9" fill="#fff" stroke="#021d49" stroke-miterlimit="10" stroke-width=".82"/><ellipse cx="33.8" cy="35.6" fill="#021d49" rx="11.3" ry="8.4"/><path fill="none" stroke="#fff" stroke-linecap="round" stroke-linejoin="round" stroke-width=".55" d="M18 46.7a19 19 0 1 1 31-21.3"/><circle cx="13.4" cy="36.1" r="1.8" fill="#fff"/><circle cx="13.7" cy="28.9" r="1.6" fill="#fff"/><circle cx="16.2" cy="23.5" r="1.3" fill="#fff"/><circle cx="28.4" cy="14.9" r="2.7" fill="#fff"/><circle cx="36.1" cy="15.5" r="2.2" fill="#fff"/><circle cx="42.9" cy="18.2" r="1.9" fill="#fff"/><circle cx="15.1" cy="42.8" r="1.2" fill="#fff"/><circle cx="20.8" cy="18.6" r="3.3" fill="#fff"/><circle cx="28.4" cy="14.9" r="3.5" fill="none" stroke="#fff" stroke-miterlimit="10" stroke-width=".27"/></svg>