<svg xmlns="http://www.w3.org/2000/svg" width="1618" height="918" viewBox="0 0 1618 918"><defs><clipPath id="a"><path fill="#021d49" stroke="#021d49" stroke-miterlimit="10" stroke-width="2.04" d="M.6-1925h1656v911.19H.6z"/></clipPath><clipPath id="b"><circle cx="784.2" cy="389.8" r="133.5" fill="none"/></clipPath></defs><path fill="#021d49" d="M.6-1925h1656v911.19H.6z"/><g fill="none" stroke="#fff" stroke-miterlimit="10" stroke-width="6.13" clip-path="url(#a)"><ellipse cx="-379.3" cy="-887.4" rx="1296.2" ry="736.7" transform="rotate(-27.7 -378.621 -886.521)"/><ellipse cx="-379.3" cy="-887.4" rx="1556.8" ry="884.8" transform="rotate(-27.7 -378.621 -886.521)"/><ellipse cx="-379.3" cy="-887.4" rx="1765.9" ry="1003.6" transform="rotate(-27.7 -378.621 -886.521)"/><ellipse cx="-379.3" cy="-887.4" rx="2035.2" ry="1156.7" transform="rotate(-27.7 -378.621 -886.521)"/></g><path fill="none" stroke="#021d49" stroke-miterlimit="10" stroke-width="2.04" d="M.6-1925h1656v911.19H.6z"/><path fill="#021d49" d="M-5.3 0h1618v918H-5.3z"/><rect width="1057.5" height="563.8" x="290.7" y="107.9" fill="none" stroke="#fff" stroke-miterlimit="10" stroke-width="40.48" rx="185" ry="185"/><circle cx="445.1" cy="671.7" r="6.8" fill="#021d49"/><circle cx="488.1" cy="671.7" r="6.8" fill="#021d49"/><circle cx="526.1" cy="671.7" r="6.8" fill="#021d49"/><circle cx="562.8" cy="671.7" r="6.8" fill="#021d49"/><circle cx="605.9" cy="671.7" r="6.8" fill="#021d49"/><circle cx="643.9" cy="671.7" r="6.8" fill="#021d49"/><circle cx="679.2" cy="671.7" r="6.8" fill="#021d49"/><circle cx="722.2" cy="671.7" r="6.8" fill="#021d49"/><circle cx="760.2" cy="671.7" r="6.8" fill="#021d49"/><circle cx="799.6" cy="671.7" r="6.8" fill="#021d49"/><circle cx="290.8" cy="286.2" r="6.8" fill="#021d49"/><circle cx="290.7" cy="329.3" r="6.8" fill="#021d49"/><circle cx="290.6" cy="367.3" r="6.8" fill="#021d49"/><circle cx="290.5" cy="406.7" r="6.8" fill="#021d49"/><circle cx="290.5" cy="446" r="6.8" fill="#021d49"/><circle cx="290.7" cy="489.1" r="6.8" fill="#021d49"/><circle cx="1348.4" cy="286.2" r="6.8" fill="#021d49"/><circle cx="1348.3" cy="329.3" r="6.8" fill="#021d49"/><circle cx="1348.1" cy="367.3" r="6.8" fill="#021d49"/><circle cx="1348" cy="406.7" r="6.8" fill="#021d49"/><circle cx="1348" cy="446" r="6.8" fill="#021d49"/><circle cx="1348.2" cy="489.1" r="6.8" fill="#021d49"/><circle cx="842.7" cy="671.7" r="6.8" fill="#021d49"/><circle cx="880.6" cy="671.7" r="6.8" fill="#021d49"/><circle cx="918.4" cy="671.7" r="6.8" fill="#021d49"/><circle cx="961.5" cy="671.7" r="6.8" fill="#021d49"/><circle cx="999.4" cy="671.7" r="6.8" fill="#021d49"/><circle cx="1039.2" cy="671.7" r="6.8" fill="#021d49"/><circle cx="1082.3" cy="671.7" r="6.8" fill="#021d49"/><circle cx="1120.3" cy="671.7" r="6.8" fill="#021d49"/><circle cx="1157.8" cy="671.7" r="6.8" fill="#021d49"/><circle cx="1195.8" cy="671.7" r="6.8" fill="#021d49"/><circle cx="445.1" cy="107.9" r="6.8" fill="#021d49"/><circle cx="488.1" cy="107.9" r="6.8" fill="#021d49"/><circle cx="526.1" cy="107.9" r="6.8" fill="#021d49"/><circle cx="562.8" cy="107.9" r="6.8" fill="#021d49"/><circle cx="605.9" cy="107.9" r="6.8" fill="#021d49"/><circle cx="643.9" cy="107.9" r="6.8" fill="#021d49"/><circle cx="679.2" cy="107.9" r="6.8" fill="#021d49"/><circle cx="722.2" cy="107.9" r="6.8" fill="#021d49"/><circle cx="760.2" cy="107.9" r="6.8" fill="#021d49"/><circle cx="799.6" cy="107.9" r="6.8" fill="#021d49"/><circle cx="842.7" cy="107.9" r="6.8" fill="#021d49"/><circle cx="880.6" cy="107.9" r="6.8" fill="#021d49"/><circle cx="918.4" cy="107.9" r="6.8" fill="#021d49"/><circle cx="961.5" cy="107.9" r="6.8" fill="#021d49"/><circle cx="999.4" cy="107.9" r="6.8" fill="#021d49"/><circle cx="1039.2" cy="107.9" r="6.8" fill="#021d49"/><circle cx="1082.3" cy="107.9" r="6.8" fill="#021d49"/><circle cx="1120.3" cy="107.9" r="6.8" fill="#021d49"/><circle cx="1157.8" cy="107.9" r="6.8" fill="#021d49"/><circle cx="1195.8" cy="107.9" r="6.8" fill="#021d49"/><path fill="#fff" d="M398 234l4.7 8.7 8.7 4.7-8.7 4.8-4.7 8.7-4.8-8.7-8.7-4.8 8.7-4.7 4.8-8.7zm96.9-71.6l4.7 8.7 8.7 4.7-8.7 4.8-4.7 8.7-4.8-8.7-8.7-4.8 8.7-4.7 4.8-8.7zm61.2 140l4.7 8.7 8.7 4.8-8.7 4.7-4.7 8.7-4.8-8.7-8.7-4.7 8.7-4.8 4.8-8.7zm557.4 240.2l4.8 8.7 8.7 4.7-8.7 4.8-4.8 8.7-4.7-8.7-8.7-4.8 8.7-4.7 4.7-8.7z"/><path fill="#f1f2f2" d="M1195.8 369.2l4.7 8.7 8.7 4.8-8.7 4.7-4.7 8.7-4.8-8.7-8.7-4.7 8.7-4.8 4.8-8.7z"/><path fill="#fff" d="M1216 170.1l4.7 8.7 8.7 4.8-8.7 4.7-4.7 8.7-4.8-8.7-8.7-4.7 8.7-4.8 4.8-8.7zm-149.9 65.6l4.8 8.7 8.7 4.8-8.7 4.7-4.8 8.7-4.7-8.7-8.7-4.7 8.7-4.8 4.7-8.7zm-46.5 106.7l4.8 8.7 8.7 4.7-8.7 4.8-4.8 8.6-4.7-8.6-8.7-4.8 8.7-4.7 4.7-8.7zM722.2 580.7l4.8 8.7 8.7 4.7-8.7 4.8-4.8 8.6-4.7-8.6-8.7-4.8 8.7-4.7 4.7-8.7zm189.4-26.9l4.8 8.7 8.7 4.7-8.7 4.8-4.8 8.7-4.7-8.7-8.7-4.8 8.7-4.7 4.7-8.7zm-75.7-391.4l4.8 8.7 8.6 4.7-8.6 4.8-4.8 8.7-4.8-8.7-8.6-4.8 8.6-4.7 4.8-8.7zM445.1 419.2l4.7 8.7 8.7 4.7-8.7 4.8-4.7 8.6-4.8-8.6-8.7-4.8 8.7-4.7 4.8-8.7zm43 105.1l4.8 8.7 8.7 4.7-8.7 4.8-4.8 8.7-4.7-8.7-8.7-4.8 8.7-4.7 4.7-8.7zm769.2-8.6l4.7 8.7 8.7 4.7-8.7 4.8-4.7 8.7-4.8-8.7-8.7-4.8 8.7-4.7 4.8-8.7z"/><rect width="1149.1" height="649.53" x="245.6" y="66.2" fill="none" stroke="#fff" stroke-miterlimit="10" stroke-width="5.03" rx="207" ry="207"/><g clip-path="url(#b)"><circle cx="784.2" cy="389.8" r="133.5" fill="#f47c53"/><path fill="#f15f47" d="M657.6 347.3s20.4 73.4 97 97.4 103.7 56.2 103.7 56.2-86.8 59.3-171.4-19.6c0 0-54.4-49.5-29.3-134z"/><path fill="#f15f47" d="M729.7 267.9s28.7 46.9 72.5 72.9a117.1 117.1 0 0 0 33.2 13c20.2 4.6 65 17.3 82.3 43.1 0 0-.8 43.3-28.1 74.8 0 0-218.3-27.5-208.1-167.2 0 0 20.8-26.8 48.2-36.6z"/><path fill="#f15f47" d="M768.5 256.3s-19.3 70.6 145.1 100.5c0 0-8.7-47.8-61.5-81.9 0 0-31.8-21.7-83.6-18.6z"/></g></svg>