<svg xmlns="http://www.w3.org/2000/svg" width="1618" height="918" viewBox="0 0 1618 918"><defs><clipPath id="a"><path fill="#021d49" stroke="#021d49" stroke-miterlimit="10" stroke-width="2.04" d="M.6-1925h1656v911.19H.6z"/></clipPath></defs><path fill="#021d49" d="M.6-1925h1656v911.19H.6z"/><g fill="none" stroke="#fff" stroke-miterlimit="10" stroke-width="6.13" clip-path="url(#a)"><ellipse cx="-379.3" cy="-887.4" rx="1296.2" ry="736.7" transform="rotate(-27.7 -378.621 -886.521)"/><ellipse cx="-379.3" cy="-887.4" rx="1556.8" ry="884.8" transform="rotate(-27.7 -378.621 -886.521)"/><ellipse cx="-379.3" cy="-887.4" rx="1765.9" ry="1003.6" transform="rotate(-27.7 -378.621 -886.521)"/><ellipse cx="-379.3" cy="-887.4" rx="2035.2" ry="1156.7" transform="rotate(-27.7 -378.621 -886.521)"/></g><path fill="none" stroke="#021d49" stroke-miterlimit="10" stroke-width="2.04" d="M.6-1925h1656v911.19H.6z"/><path fill="#021d49" d="M-5.3 0h1618v918H-5.3z"/><rect width="1057.5" height="563.8" x="290.7" y="107.9" fill="none" stroke="#fff" stroke-miterlimit="10" stroke-width="40.48" rx="185" ry="185"/><circle cx="445.1" cy="671.7" r="6.8" fill="#021d49"/><circle cx="488.1" cy="671.7" r="6.8" fill="#021d49"/><circle cx="526.1" cy="671.7" r="6.8" fill="#021d49"/><circle cx="562.8" cy="671.7" r="6.8" fill="#021d49"/><circle cx="605.9" cy="671.7" r="6.8" fill="#021d49"/><circle cx="643.9" cy="671.7" r="6.8" fill="#021d49"/><circle cx="679.2" cy="671.7" r="6.8" fill="#021d49"/><circle cx="722.2" cy="671.7" r="6.8" fill="#021d49"/><circle cx="760.2" cy="671.7" r="6.8" fill="#021d49"/><circle cx="799.6" cy="671.7" r="6.8" fill="#021d49"/><circle cx="290.8" cy="286.2" r="6.8" fill="#021d49"/><circle cx="290.7" cy="329.3" r="6.8" fill="#021d49"/><circle cx="290.6" cy="367.3" r="6.8" fill="#021d49"/><circle cx="290.5" cy="406.7" r="6.8" fill="#021d49"/><circle cx="290.5" cy="446" r="6.8" fill="#021d49"/><circle cx="290.7" cy="489.1" r="6.8" fill="#021d49"/><circle cx="1348.4" cy="286.2" r="6.8" fill="#021d49"/><circle cx="1348.3" cy="329.3" r="6.8" fill="#021d49"/><circle cx="1348.1" cy="367.3" r="6.8" fill="#021d49"/><circle cx="1348" cy="406.7" r="6.8" fill="#021d49"/><circle cx="1348" cy="446" r="6.8" fill="#021d49"/><circle cx="1348.2" cy="489.1" r="6.8" fill="#021d49"/><circle cx="842.7" cy="671.7" r="6.8" fill="#021d49"/><circle cx="880.6" cy="671.7" r="6.8" fill="#021d49"/><circle cx="918.4" cy="671.7" r="6.8" fill="#021d49"/><circle cx="961.5" cy="671.7" r="6.8" fill="#021d49"/><circle cx="999.4" cy="671.7" r="6.8" fill="#021d49"/><circle cx="1039.2" cy="671.7" r="6.8" fill="#021d49"/><circle cx="1082.3" cy="671.7" r="6.8" fill="#021d49"/><circle cx="1120.3" cy="671.7" r="6.8" fill="#021d49"/><circle cx="1157.8" cy="671.7" r="6.8" fill="#021d49"/><circle cx="1195.8" cy="671.7" r="6.8" fill="#021d49"/><circle cx="445.1" cy="107.9" r="6.8" fill="#021d49"/><circle cx="488.1" cy="107.9" r="6.8" fill="#021d49"/><circle cx="526.1" cy="107.9" r="6.8" fill="#021d49"/><circle cx="562.8" cy="107.9" r="6.8" fill="#021d49"/><circle cx="605.9" cy="107.9" r="6.8" fill="#021d49"/><circle cx="643.9" cy="107.9" r="6.8" fill="#021d49"/><circle cx="679.2" cy="107.9" r="6.8" fill="#021d49"/><circle cx="722.2" cy="107.9" r="6.8" fill="#021d49"/><circle cx="760.2" cy="107.9" r="6.8" fill="#021d49"/><circle cx="799.6" cy="107.9" r="6.8" fill="#021d49"/><circle cx="842.7" cy="107.9" r="6.8" fill="#021d49"/><circle cx="880.6" cy="107.9" r="6.8" fill="#021d49"/><circle cx="918.4" cy="107.9" r="6.8" fill="#021d49"/><circle cx="961.5" cy="107.9" r="6.8" fill="#021d49"/><circle cx="999.4" cy="107.9" r="6.8" fill="#021d49"/><circle cx="1039.2" cy="107.9" r="6.8" fill="#021d49"/><circle cx="1082.3" cy="107.9" r="6.8" fill="#021d49"/><circle cx="1120.3" cy="107.9" r="6.8" fill="#021d49"/><circle cx="1157.8" cy="107.9" r="6.8" fill="#021d49"/><circle cx="1195.8" cy="107.9" r="6.8" fill="#021d49"/><path fill="#fff" d="M398 234l4.7 8.7 8.7 4.7-8.7 4.8-4.7 8.7-4.8-8.7-8.7-4.8 8.7-4.7 4.8-8.7zm96.9-71.6l4.7 8.7 8.7 4.7-8.7 4.8-4.7 8.7-4.8-8.7-8.7-4.8 8.7-4.7 4.8-8.7zm61.2 140l4.7 8.7 8.7 4.8-8.7 4.7-4.7 8.7-4.8-8.7-8.7-4.7 8.7-4.8 4.8-8.7zm557.4 240.2l4.8 8.7 8.7 4.7-8.7 4.8-4.8 8.7-4.7-8.7-8.7-4.8 8.7-4.7 4.7-8.7z"/><path fill="#f1f2f2" d="M1195.8 369.2l4.7 8.7 8.7 4.8-8.7 4.7-4.7 8.7-4.8-8.7-8.7-4.7 8.7-4.8 4.8-8.7z"/><path fill="#fff" d="M1216 170.1l4.7 8.7 8.7 4.8-8.7 4.7-4.7 8.7-4.8-8.7-8.7-4.7 8.7-4.8 4.8-8.7zm-149.9 65.6l4.8 8.7 8.7 4.8-8.7 4.7-4.8 8.7-4.7-8.7-8.7-4.7 8.7-4.8 4.7-8.7zm-46.5 106.7l4.8 8.7 8.7 4.7-8.7 4.8-4.8 8.6-4.7-8.6-8.7-4.8 8.7-4.7 4.7-8.7zM722.2 580.7l4.8 8.7 8.7 4.7-8.7 4.8-4.8 8.6-4.7-8.6-8.7-4.8 8.7-4.7 4.7-8.7zm189.4-26.9l4.8 8.7 8.7 4.7-8.7 4.8-4.8 8.7-4.7-8.7-8.7-4.8 8.7-4.7 4.7-8.7zm-75.7-391.4l4.8 8.7 8.6 4.7-8.6 4.8-4.8 8.7-4.8-8.7-8.6-4.8 8.6-4.7 4.8-8.7zM445.1 419.2l4.7 8.7 8.7 4.7-8.7 4.8-4.7 8.6-4.8-8.6-8.7-4.8 8.7-4.7 4.8-8.7zm43 105.1l4.8 8.7 8.7 4.7-8.7 4.8-4.8 8.7-4.7-8.7-8.7-4.8 8.7-4.7 4.7-8.7zm769.2-8.6l4.7 8.7 8.7 4.7-8.7 4.8-4.7 8.7-4.8-8.7-8.7-4.8 8.7-4.7 4.8-8.7z"/><rect width="1149.1" height="649.53" x="245.6" y="66.2" fill="none" stroke="#fff" stroke-miterlimit="10" stroke-width="5.03" rx="207" ry="207"/><circle cx="777.7" cy="401.3" r="120.5" fill="#f1635c"/><path fill="#e5412a" d="M695.2 489.2s32-27.2 103.6 0c0 0 33 13 50.8 8.8 0 0-33.7 23.6-64.4 23.6 0 0-50.7 6.9-90-32.4z"/><path fill="#ed3a38" d="M690.2 484.2s49.8-28.6 122.7 5c0 0 28.7 10 40.8 5.6 0 0 11.2-9.4 16.4-16.1 0 0-50.4-56.1-193.1-11 0 0 4.1 7.4 13.2 16.5z"/><path fill="#a41e22" d="M674.8 464.1s107.3-47.7 201.9 5.9a72.7 72.7 0 0 0 4-6.1s-25-32.1-107.1-28.9S659 422.6 659 422.6s1.6 16.5 15.8 41.5z"/><path fill="#e5412a" d="M658 415.3s25.1 17.3 142.1 15.3a153.4 153.4 0 0 1 49 7c13.4 4.3 27.4 10.8 35 20.3 0 0 10.7-22.9 12.2-35.3 0 0-31.3-20.3-133.1-11.4a199.1 199.1 0 0 1-52.3-2.2c-18-3.3-38.8-9.2-53.1-20.1 0 0-1.1 17.9.2 26.4z"/><path fill="#ed3a38" d="M658.1 386.1s43.9 30 138.6 17.3c55.2-7.4 100.2 15.2 100.2 15.2s2.6-17-1.9-44.7c0 0-64.1-30.7-169.2-6.4a110 110 0 0 1-13.8 2.2c-12.2.9-34.1 1-47.8-8.9a178.8 178.8 0 0 0-6.1 25.3z"/><path fill="#a41e22" d="M665.9 356.3s34.1 15.7 79.9 3.8c71.7-18.4 147.7 7.7 147.7 7.7a170.4 170.4 0 0 0-19.7-39.2s-41.6-18-141.7 8.8a92.3 92.3 0 0 1-54.3-2.1l-.8-.3s-7.4 10.1-11.1 21.3z"/><path fill="#e5412a" d="M680.1 330.6s24.8 8.9 63-1.9c4.3-1.2 8.6-2.2 13-3 20.7-3.8 74.4-12 112.9-3 0 0-14.1-16.2-27.1-23.3 0 0-73.3-22.6-145.9 13.3 0 0-12.8 13.5-15.9 17.9z"/></svg>