<svg xmlns="http://www.w3.org/2000/svg" width="1618" height="918" viewBox="0 0 1618 918"><defs><clipPath id="a"><circle cx="785.5" cy="400.3" r="146" fill="none"/></clipPath></defs><path fill="#021d49" d="M-1650.4-967.6H5.6v911.19h-1656z"/><path fill="none" stroke="#021d49" stroke-miterlimit="10" stroke-width="2.04" d="M-1650.4-967.6H5.6v911.19h-1656z"/><rect width="1061.4" height="565.84" x="307" y="99.8" fill="none" stroke="#021d49" stroke-miterlimit="10" stroke-width="40.63" rx="185.7" ry="185.7"/><circle cx="462" cy="665.6" r="6.8" fill="#fff"/><circle cx="505.2" cy="665.6" r="6.8" fill="#fff"/><circle cx="543.3" cy="665.6" r="6.8" fill="#fff"/><circle cx="580.1" cy="665.6" r="6.8" fill="#fff"/><circle cx="623.4" cy="665.6" r="6.8" fill="#fff"/><circle cx="661.5" cy="665.6" r="6.8" fill="#fff"/><circle cx="696.9" cy="665.6" r="6.8" fill="#fff"/><circle cx="740.1" cy="665.6" r="6.8" fill="#fff"/><circle cx="778.3" cy="665.6" r="6.8" fill="#fff"/><circle cx="817.8" cy="665.6" r="6.8" fill="#fff"/><circle cx="307.2" cy="278.8" r="6.8" fill="#fff"/><circle cx="307.1" cy="322" r="6.8" fill="#fff"/><circle cx="306.9" cy="360.1" r="6.8" fill="#fff"/><circle cx="306.8" cy="399.7" r="6.8" fill="#fff"/><circle cx="306.8" cy="439.2" r="6.8" fill="#fff"/><circle cx="307" cy="482.4" r="6.8" fill="#fff"/><circle cx="1368.6" cy="278.8" r="6.8" fill="#fff"/><circle cx="1368.4" cy="322" r="6.8" fill="#fff"/><circle cx="1368.3" cy="360.1" r="6.8" fill="#fff"/><circle cx="1368.2" cy="399.7" r="6.8" fill="#fff"/><circle cx="1368.2" cy="439.2" r="6.8" fill="#fff"/><circle cx="1368.4" cy="482.4" r="6.8" fill="#fff"/><circle cx="861" cy="665.6" r="6.8" fill="#fff"/><circle cx="899.1" cy="665.6" r="6.8" fill="#fff"/><circle cx="937" cy="665.6" r="6.8" fill="#fff"/><circle cx="980.2" cy="665.6" r="6.8" fill="#fff"/><circle cx="1018.4" cy="665.6" r="6.8" fill="#fff"/><circle cx="1058.3" cy="665.6" r="6.8" fill="#fff"/><circle cx="1101.5" cy="665.6" r="6.8" fill="#fff"/><circle cx="1139.6" cy="665.6" r="6.8" fill="#fff"/><circle cx="1177.3" cy="665.6" r="6.8" fill="#fff"/><circle cx="1215.4" cy="665.6" r="6.8" fill="#fff"/><circle cx="462" cy="99.8" r="6.8" fill="#fff"/><circle cx="505.2" cy="99.8" r="6.8" fill="#fff"/><circle cx="543.3" cy="99.8" r="6.8" fill="#fff"/><circle cx="580.1" cy="99.8" r="6.8" fill="#fff"/><circle cx="623.4" cy="99.8" r="6.8" fill="#fff"/><circle cx="661.5" cy="99.8" r="6.8" fill="#fff"/><circle cx="696.9" cy="99.8" r="6.8" fill="#fff"/><circle cx="740.1" cy="99.8" r="6.8" fill="#fff"/><circle cx="778.3" cy="99.8" r="6.8" fill="#fff"/><circle cx="817.8" cy="99.8" r="6.8" fill="#fff"/><circle cx="861" cy="99.8" r="6.8" fill="#fff"/><circle cx="899.1" cy="99.8" r="6.8" fill="#fff"/><circle cx="937" cy="99.8" r="6.8" fill="#fff"/><circle cx="980.2" cy="99.8" r="6.8" fill="#fff"/><circle cx="1018.4" cy="99.8" r="6.8" fill="#fff"/><circle cx="1058.3" cy="99.8" r="6.8" fill="#fff"/><circle cx="1101.5" cy="99.8" r="6.8" fill="#fff"/><circle cx="1139.6" cy="99.8" r="6.8" fill="#fff"/><circle cx="1177.3" cy="99.8" r="6.8" fill="#fff"/><circle cx="1215.4" cy="99.8" r="6.8" fill="#fff"/><rect width="1153.2" height="651.88" x="261.8" y="58" fill="none" stroke="#021d49" stroke-miterlimit="10" stroke-width="5.04" rx="207.8" ry="207.8"/><path fill="#021d49" d="M414.7 226.3l4.8 8.7 8.7 4.8-8.7 4.8-4.8 8.7-4.8-8.7-8.7-4.8 8.7-4.8 4.8-8.7zm30.2 262.9l4.8 8.7 8.7 4.8-8.7 4.7-4.8 8.8-4.7-8.8-8.8-4.7 8.8-4.8 4.7-8.7zm171.7-307.8l4.8 8.8 8.7 4.7-8.7 4.8-4.8 8.7-4.8-8.7-8.7-4.8 8.7-4.7 4.8-8.8zM536.5 322l4.8 8.7 8.7 4.8-8.7 4.8-4.8 8.7-4.8-8.7-8.7-4.8 8.7-4.8 4.8-8.7zm685.7 252.3l4.8 8.7 8.7 4.8-8.7 4.7-4.8 8.8-4.8-8.8-8.7-4.7 8.7-4.8 4.8-8.7zm-62.3-379.4l4.8 8.8 8.7 4.7-8.7 4.8-4.8 8.7-4.8-8.7-8.7-4.8 8.7-4.7 4.8-8.8zm117.2 120.4l4.8 8.7 8.7 4.8-8.7 4.8-4.8 8.7-4.8-8.7-8.7-4.8 8.7-4.8 4.8-8.7zm-124 153.6l4.8 8.7 8.7 4.8-8.7 4.8-4.8 8.7-4.7-8.7-8.8-4.8 8.8-4.8 4.7-8.7zM919.4 574.3l4.8 8.7 8.7 4.8-8.7 4.7-4.8 8.8-4.8-8.8-8.7-4.7 8.7-4.8 4.8-8.7zm92.2-162.1l4.7 8.7 8.8 4.8-8.8 4.7-4.7 8.8-4.8-8.8-8.7-4.7 8.7-4.8 4.8-8.7zM867.8 181.4l4.8 8.8 8.7 4.7-8.7 4.8-4.8 8.7-4.8-8.7-8.7-4.8 8.7-4.7 4.8-8.8zM609.9 567.3l4.8 8.7 8.7 4.8-8.7 4.7-4.8 8.8-4.8-8.8-8.7-4.7 8.7-4.8 4.8-8.7zm653.7-155.1l4.8 8.7 8.7 4.8-8.7 4.7-4.8 8.8-4.7-8.8-8.8-4.7 8.8-4.8 4.7-8.7z"/><circle cx="1011.6" cy="260.1" r="46.5" fill="#582976"/><g clip-path="url(#a)"><circle cx="785" cy="399.7" r="146.3" fill="#7f3f98" stroke="#7f3f98" stroke-miterlimit="10"/><path fill="#ad72b1" d="M623.4 388.3s68.5 61.1 140.1 38.8a143.9 143.9 0 0 0 22.7-9.2c55.4-27.2 100-86.2 124.3-161.4 3.1-9.9 6.6-20.2 10.2-30.2 0 0 60.1 111.3-1.8 236.6C845.6 611 677.3 516 677.3 516s-47.3-42-53.9-127.7z"/><path fill="#ad72b1" d="M638.3 384.5s97.2 36.7 174.3-39.2 56.3-99.1 56.3-99.1S669 197.6 638.3 384.5z"/><path fill="#7f3f98" stroke="#7f3f98" stroke-miterlimit="10" d="M660.9 477.2S832.4 508.6 923 354.1c0 0 10.9 33.8 6.7 58.1 0 0 9 149.3-242.8 97zm-7.4-141.7s121.8 68.9 171.9-76.5c0 0-113.9-36.5-171.9 76.5z"/><circle cx="783.9" cy="399.7" r="146.3" fill="none"/></g></svg>