<svg xmlns="http://www.w3.org/2000/svg"><symbol id="boarding" viewBox="0 0 216 216"><path fill="none" stroke="#021d49" stroke-linecap="round" stroke-linejoin="round" stroke-width="3.02" d="M111.7 152l-52.2-.1.1-33.4.1-45.7 52.2.2-.2 79z"/><path fill="#021d49" stroke="#021d49" stroke-linecap="round" stroke-linejoin="round" stroke-width="3.02" d="M38 151.8L59.6 102l-.1 49.9-21.5-.1z"/><path fill="none" stroke="#021d49" stroke-linecap="round" stroke-linejoin="round" stroke-width="3.02" d="M133.1 152.1l-21.3-50-.1 49.9 21.4.1zm-65.7-.2l-4.9 24.9 23 .1.1-25H67.4z"/><path fill="#021d49" stroke="#021d49" stroke-linecap="round" stroke-linejoin="round" stroke-width="3.02" d="M103.7 152l4.7 24.9H85.5l.1-25 18.1.1zm-44-79.2l18.5-29.7a9 9 0 0 1 15.3.1L111.9 73z"/><circle cx="85.7" cy="96.5" r="11.5" fill="#021d49" stroke="#021d49" stroke-linecap="round" stroke-linejoin="round" stroke-width="3.02"/><path fill="#021d49" stroke="#021d49" stroke-linecap="round" stroke-linejoin="round" stroke-width="5.33" d="M59.2 106.3l93.6 1.5"/><path fill="#021d49" stroke="#021d49" stroke-linecap="round" stroke-linejoin="round" stroke-width="3.59" d="M153.5 38.9h25.9v138.13h-25.9z"/></symbol><symbol id="flying" viewBox="0 0 216 216"><path fill="none" stroke="#021d49" stroke-linecap="round" stroke-linejoin="round" stroke-width="2.81" d="M122.4 164.8L95 124.6l25.7-17.5 35.2-23.9 27.4 40.1-60.9 41.5z"/><path fill="#021d49" stroke="#021d49" stroke-linecap="round" stroke-linejoin="round" stroke-width="2.81" d="M83.8 108.1l49.6-9.6L95 124.6l-11.2-16.5z"/><path fill="none" stroke="#021d49" stroke-linecap="round" stroke-linejoin="round" stroke-width="2.81" d="M133.7 181.3l27.1-42.7-38.4 26.2 11.3 16.5zm-34.5-50.6l-21.7 9.4 12 17.7 19.2-13.1-9.5-14z"/><path fill="#021d49" stroke="#021d49" stroke-linecap="round" stroke-linejoin="round" stroke-width="2.81" d="M118.3 158.7l-16.7 16.8-12.1-17.7 19.2-13.1 9.6 14zm37.6-75.5l32.6-1.4a8.3 8.3 0 0 1 8 11.7l-13.2 29.8z"/><circle cx="151.4" cy="115.6" r="10.7" fill="#021d49" stroke="#021d49" stroke-linecap="round" stroke-linejoin="round" stroke-width="2.81"/><path fill="none" stroke="#021d49" stroke-linecap="round" stroke-linejoin="round" stroke-width="2.64" d="M104.7 46.3a32.4 32.4 0 0 1-62.9 10.6A31.5 31.5 0 0 1 40 46.3a32.4 32.4 0 0 1 64.7 0z"/><path fill="#021d49" stroke="#021d49" stroke-linecap="round" stroke-linejoin="round" stroke-width="2.64" d="M68.6 58.8s-13.8 7-26.8-1.9c0 0 3.9 13.3 16.9 18.7 0 0 20.3 2 22.6-4.1s16.4-5.1 16.4-5.1l4.6-7.8s-26.2-7.3-33.7.2z"/><path fill="#021d49" stroke="#021d49" stroke-linecap="round" stroke-linejoin="round" stroke-width="2.63" d="M41.9 36.6s15.8-9.7 31.4-4.8 24.6-5.4 24.6-5.4 4.7 7.6 5.3 10.2-2.4 7.8-8.1 9.7-25.8-5.3-33.3-1.4-21.3 1.4-21.3 1.4-.4-6.4 1.4-9.7zm15.2-18.8a19.9 19.9 0 0 0 16 4.6c9.7-1.4 10.1-6.6 10.1-6.6s-13.3-5-26.1 2z"/><circle cx="124.5" cy="54.2" r="7.9" fill="#021d49" stroke="#021d49" stroke-linecap="round" stroke-linejoin="round" stroke-width="2.8"/><circle cx="36.3" cy="70.8" r="3.7" fill="#021d49" stroke="#021d49" stroke-linecap="round" stroke-linejoin="round" stroke-width="1.33"/><path fill="none" stroke="#021d49" stroke-linecap="round" stroke-linejoin="round" stroke-width="2.48" d="M80.7 162.9l-44.6 31.5m31.8-45.5L49.4 162m37.9 19.3L57.9 202"/></symbol><symbol id="take-off" viewBox="0 0 216 216"><path fill="none" stroke="#021d49" stroke-linecap="round" stroke-linejoin="round" stroke-width="3.02" d="M125.4 127.3L81.1 99.7l17.6-28.3 24.2-38.8 44.3 27.6-41.8 67.1z"/><path fill="#021d49" stroke="#021d49" stroke-linecap="round" stroke-linejoin="round" stroke-width="3.02" d="M62.8 88.4l44.6-31-26.3 42.3-18.3-11.3z"/><path fill="none" stroke="#021d49" stroke-linecap="round" stroke-linejoin="round" stroke-width="3.02" d="M143.6 138.7l8.1-53.7-26.3 42.3 18.2 11.4zm-55.8-34.8l-17.3 18.7L90 134.7l13.2-21.2-15.4-9.6z"/><path fill="#021d49" stroke="#021d49" stroke-linecap="round" stroke-linejoin="round" stroke-width="3.02" d="M118.6 123.1l-9.1 23.7L90 134.7l13.2-21.2 15.4 9.6zm4.3-90.5l31.4-15.4a9 9 0 0 1 12.9 8v35z"/><circle cx="132.5" cy="66.5" r="11.5" fill="#021d49" stroke="#021d49" stroke-linecap="round" stroke-linejoin="round" stroke-width="3.02"/><path fill="none" stroke="#021d49" stroke-linecap="round" stroke-linejoin="round" stroke-width="3.02" d="M84.5 143.5L49 199.7m14.6-66.1l-14.8 23.5m51.7 4l-23.3 37.1"/></symbol></svg>