<svg xmlns="http://www.w3.org/2000/svg" width="1618" height="918" viewBox="0 0 1618 918"><title>spaceship</title><g id="Layer_1" data-name="Layer 1"><g id="space"><rect x="-1649.8" y="-1925" width="1656" height="911.19" fill="#021d49"/><rect x="-1649.8" y="-1925" width="1656" height="911.19" fill="none" stroke="#021d49" stroke-miterlimit="10" stroke-width="2.04"/></g></g><g id="Layer_2" data-name="Layer 2"><rect x="318" y="117.4" width="1061.4" height="565.84" rx="185.7" ry="185.7" fill="none" stroke="#021d49" stroke-miterlimit="10" stroke-width="40.63"/><circle cx="472.9" cy="683.2" r="6.8" fill="#fff"/><circle cx="516.1" cy="683.2" r="6.8" fill="#fff"/><circle cx="554.3" cy="683.2" r="6.8" fill="#fff"/><circle cx="591.1" cy="683.2" r="6.8" fill="#fff"/><circle cx="634.3" cy="683.2" r="6.8" fill="#fff"/><circle cx="672.5" cy="683.2" r="6.8" fill="#fff"/><circle cx="707.9" cy="683.2" r="6.8" fill="#fff"/><circle cx="751.1" cy="683.2" r="6.8" fill="#fff"/><circle cx="789.2" cy="683.2" r="6.8" fill="#fff"/><circle cx="828.7" cy="683.2" r="6.8" fill="#fff"/><circle cx="318.2" cy="296.3" r="6.8" fill="#fff"/><circle cx="318" cy="339.6" r="6.8" fill="#fff"/><circle cx="317.9" cy="377.7" r="6.8" fill="#fff"/><circle cx="317.8" cy="417.2" r="6.8" fill="#fff"/><circle cx="317.8" cy="456.7" r="6.8" fill="#fff"/><circle cx="318" cy="500" r="6.8" fill="#fff"/><circle cx="1379.5" cy="296.3" r="6.8" fill="#fff"/><circle cx="1379.4" cy="339.6" r="6.8" fill="#fff"/><circle cx="1379.3" cy="377.7" r="6.8" fill="#fff"/><circle cx="1379.2" cy="417.2" r="6.8" fill="#fff"/><circle cx="1379.2" cy="456.7" r="6.8" fill="#fff"/><circle cx="1379.3" cy="500" r="6.8" fill="#fff"/><circle cx="872" cy="683.2" r="6.8" fill="#fff"/><circle cx="910.1" cy="683.2" r="6.8" fill="#fff"/><circle cx="948" cy="683.2" r="6.8" fill="#fff"/><circle cx="991.2" cy="683.2" r="6.8" fill="#fff"/><circle cx="1029.3" cy="683.2" r="6.8" fill="#fff"/><circle cx="1069.2" cy="683.2" r="6.8" fill="#fff"/><circle cx="1112.5" cy="683.2" r="6.8" fill="#fff"/><circle cx="1150.6" cy="683.2" r="6.8" fill="#fff"/><circle cx="1188.2" cy="683.2" r="6.8" fill="#fff"/><circle cx="1226.4" cy="683.2" r="6.8" fill="#fff"/><circle cx="472.9" cy="117.4" r="6.8" fill="#fff"/><circle cx="516.1" cy="117.4" r="6.8" fill="#fff"/><circle cx="554.3" cy="117.4" r="6.8" fill="#fff"/><circle cx="591.1" cy="117.4" r="6.8" fill="#fff"/><circle cx="634.3" cy="117.4" r="6.8" fill="#fff"/><circle cx="672.5" cy="117.4" r="6.8" fill="#fff"/><circle cx="707.9" cy="117.4" r="6.8" fill="#fff"/><circle cx="751.1" cy="117.4" r="6.8" fill="#fff"/><circle cx="789.2" cy="117.4" r="6.8" fill="#fff"/><circle cx="828.7" cy="117.4" r="6.8" fill="#fff"/><circle cx="872" cy="117.4" r="6.8" fill="#fff"/><circle cx="910.1" cy="117.4" r="6.8" fill="#fff"/><circle cx="948" cy="117.4" r="6.8" fill="#fff"/><circle cx="991.2" cy="117.4" r="6.8" fill="#fff"/><circle cx="1029.3" cy="117.4" r="6.8" fill="#fff"/><circle cx="1069.2" cy="117.4" r="6.8" fill="#fff"/><circle cx="1112.5" cy="117.4" r="6.8" fill="#fff"/><circle cx="1150.6" cy="117.4" r="6.8" fill="#fff"/><circle cx="1188.2" cy="117.4" r="6.8" fill="#fff"/><circle cx="1226.4" cy="117.4" r="6.8" fill="#fff"/><rect x="272.7" y="75.5" width="1153.2" height="651.88" rx="207.8" ry="207.8" fill="none" stroke="#021d49" stroke-miterlimit="10" stroke-width="5.04"/><polygon points="425.7 243.9 430.4 252.6 439.1 257.4 430.4 262.1 425.7 270.9 420.9 262.1 412.2 257.4 420.9 252.6 425.7 243.9" fill="#021d49"/><polygon points="455.9 506.7 460.7 515.5 469.4 520.2 460.7 525 455.9 533.7 451.1 525 442.4 520.2 451.1 515.5 455.9 506.7" fill="#021d49"/><polygon points="627.5 199 632.3 207.7 641 212.5 632.3 217.3 627.5 226 622.8 217.3 614.1 212.5 622.8 207.7 627.5 199" fill="#021d49"/><polygon points="547.5 339.6 552.2 348.3 561 353.1 552.2 357.8 547.5 366.6 542.7 357.8 534 353.1 542.7 348.3 547.5 339.6" fill="#021d49"/><polygon points="1233.2 591.8 1237.9 600.6 1246.6 605.3 1237.9 610.1 1233.2 618.8 1228.4 610.1 1219.7 605.3 1228.4 600.6 1233.2 591.8" fill="#021d49"/><polygon points="1170.9 212.5 1175.6 221.2 1184.4 226 1175.6 230.8 1170.9 239.5 1166.1 230.8 1157.4 226 1166.1 221.2 1170.9 212.5" fill="#021d49"/><polygon points="1288.1 332.9 1292.8 341.6 1301.6 346.4 1292.8 351.1 1288.1 359.9 1283.3 351.1 1274.6 346.4 1283.3 341.6 1288.1 332.9" fill="#021d49"/><polygon points="1209.3 458.2 1214.1 466.9 1222.8 471.7 1214.1 476.4 1209.3 485.1 1204.5 476.4 1195.8 471.7 1204.5 466.9 1209.3 458.2" fill="#021d49"/><polygon points="930.4 591.8 935.1 600.6 943.9 605.3 935.1 610.1 930.4 618.8 925.6 610.1 916.9 605.3 925.6 600.6 930.4 591.8" fill="#021d49"/><polygon points="1076 553.7 1080.8 562.5 1089.5 567.2 1080.8 572 1076 580.7 1071.3 572 1062.5 567.2 1071.3 562.5 1076 553.7" fill="#021d49"/><polygon points="878.8 189.5 883.5 198.2 892.2 203 883.5 207.7 878.8 216.5 874 207.7 865.3 203 874 198.2 878.8 189.5" fill="#021d49"/><polygon points="537.1 605.3 541.9 614 550.6 618.8 541.9 623.6 537.1 632.3 532.3 623.6 523.6 618.8 532.3 614 537.1 605.3" fill="#021d49"/><polygon points="847.9 476.5 777.6 336.4 867 291.5 989.6 229.9 1060 369.9 847.9 476.5" fill="none" stroke="#00a79d" stroke-linecap="round" stroke-linejoin="round" stroke-width="9.06"/><polygon points="748.6 278.8 911.3 269.2 777.6 336.4 748.6 278.8" fill="#00a79d" stroke="#00a79d" stroke-linecap="round" stroke-linejoin="round" stroke-width="9.06"/><polygon points="876.8 534.1 981.7 409.3 847.9 476.5 876.8 534.1" fill="none" stroke="#00a79d" stroke-linecap="round" stroke-linejoin="round" stroke-width="9.06"/><polygon points="788.2 357.7 714.9 378.5 745.8 440.1 812.7 406.4 788.2 357.7" fill="none" stroke="#00a79d" stroke-linecap="round" stroke-linejoin="round" stroke-width="9.06"/><polygon points="837.2 455.2 776.8 501.6 745.8 440.1 812.7 406.4 837.2 455.2" fill="#00a79d" stroke="#00a79d" stroke-linecap="round" stroke-linejoin="round" stroke-width="9.06"/><path d="M989.6,229.9l104.7,9.5a27,27,0,0,1,20.5,40.9L1060,369.9Z" fill="#00a79d" stroke="#00a79d" stroke-linecap="round" stroke-linejoin="round" stroke-width="9.06"/><circle cx="961.5" cy="331.7" r="34.5" fill="#00a79d" stroke="#00a79d" stroke-linecap="round" stroke-linejoin="round" stroke-width="9.06"/><line x1="717.8" y1="453.9" x2="539" y2="542.7" fill="none" stroke="#021d49" stroke-linecap="round" stroke-linejoin="round" stroke-width="9.06"/><line x1="679.6" y1="396" x2="605.2" y2="432.9" fill="none" stroke="#021d49" stroke-linecap="round" stroke-linejoin="round" stroke-width="9.06"/><line x1="731.4" y1="524.1" x2="613.5" y2="582.7" fill="none" stroke="#021d49" stroke-linecap="round" stroke-linejoin="round" stroke-width="9.06"/></g></svg>