<svg xmlns="http://www.w3.org/2000/svg" width="1618" height="918" viewBox="0 0 1618 918"><path fill="#021d49" d="M-1649.8-1925H6.2v911.19h-1656z"/><path fill="none" stroke="#021d49" stroke-miterlimit="10" stroke-width="2.04" d="M-1649.8-1925H6.2v911.19h-1656z"/><rect width="1061.4" height="565.84" x="318" y="117.4" fill="none" stroke="#021d49" stroke-miterlimit="10" stroke-width="40.63" rx="185.7" ry="185.7"/><circle cx="472.9" cy="683.2" r="6.8" fill="#fff"/><circle cx="516.1" cy="683.2" r="6.8" fill="#fff"/><circle cx="554.3" cy="683.2" r="6.8" fill="#fff"/><circle cx="591.1" cy="683.2" r="6.8" fill="#fff"/><circle cx="634.3" cy="683.2" r="6.8" fill="#fff"/><circle cx="672.5" cy="683.2" r="6.8" fill="#fff"/><circle cx="707.9" cy="683.2" r="6.8" fill="#fff"/><circle cx="751.1" cy="683.2" r="6.8" fill="#fff"/><circle cx="789.2" cy="683.2" r="6.8" fill="#fff"/><circle cx="828.7" cy="683.2" r="6.8" fill="#fff"/><circle cx="318.2" cy="296.3" r="6.8" fill="#fff"/><circle cx="318" cy="339.6" r="6.8" fill="#fff"/><circle cx="317.9" cy="377.7" r="6.8" fill="#fff"/><circle cx="317.8" cy="417.2" r="6.8" fill="#fff"/><circle cx="317.8" cy="456.7" r="6.8" fill="#fff"/><circle cx="318" cy="500" r="6.8" fill="#fff"/><circle cx="1379.5" cy="296.3" r="6.8" fill="#fff"/><circle cx="1379.4" cy="339.6" r="6.8" fill="#fff"/><circle cx="1379.3" cy="377.7" r="6.8" fill="#fff"/><circle cx="1379.2" cy="417.2" r="6.8" fill="#fff"/><circle cx="1379.2" cy="456.7" r="6.8" fill="#fff"/><circle cx="1379.3" cy="500" r="6.8" fill="#fff"/><circle cx="872" cy="683.2" r="6.8" fill="#fff"/><circle cx="910.1" cy="683.2" r="6.8" fill="#fff"/><circle cx="948" cy="683.2" r="6.8" fill="#fff"/><circle cx="991.2" cy="683.2" r="6.8" fill="#fff"/><circle cx="1029.3" cy="683.2" r="6.8" fill="#fff"/><circle cx="1069.2" cy="683.2" r="6.8" fill="#fff"/><circle cx="1112.5" cy="683.2" r="6.8" fill="#fff"/><circle cx="1150.6" cy="683.2" r="6.8" fill="#fff"/><circle cx="1188.2" cy="683.2" r="6.8" fill="#fff"/><circle cx="1226.4" cy="683.2" r="6.8" fill="#fff"/><circle cx="472.9" cy="117.4" r="6.8" fill="#fff"/><circle cx="516.1" cy="117.4" r="6.8" fill="#fff"/><circle cx="554.3" cy="117.4" r="6.8" fill="#fff"/><circle cx="591.1" cy="117.4" r="6.8" fill="#fff"/><circle cx="634.3" cy="117.4" r="6.8" fill="#fff"/><circle cx="672.5" cy="117.4" r="6.8" fill="#fff"/><circle cx="707.9" cy="117.4" r="6.8" fill="#fff"/><circle cx="751.1" cy="117.4" r="6.8" fill="#fff"/><circle cx="789.2" cy="117.4" r="6.8" fill="#fff"/><circle cx="828.7" cy="117.4" r="6.8" fill="#fff"/><circle cx="872" cy="117.4" r="6.8" fill="#fff"/><circle cx="910.1" cy="117.4" r="6.8" fill="#fff"/><circle cx="948" cy="117.4" r="6.8" fill="#fff"/><circle cx="991.2" cy="117.4" r="6.8" fill="#fff"/><circle cx="1029.3" cy="117.4" r="6.8" fill="#fff"/><circle cx="1069.2" cy="117.4" r="6.8" fill="#fff"/><circle cx="1112.5" cy="117.4" r="6.8" fill="#fff"/><circle cx="1150.6" cy="117.4" r="6.8" fill="#fff"/><circle cx="1188.2" cy="117.4" r="6.8" fill="#fff"/><circle cx="1226.4" cy="117.4" r="6.8" fill="#fff"/><rect width="1153.2" height="651.88" x="272.7" y="75.5" fill="none" stroke="#021d49" stroke-miterlimit="10" stroke-width="5.04" rx="207.8" ry="207.8"/><path fill="#021d49" d="M425.7 243.9l4.7 8.7 8.7 4.8-8.7 4.7-4.7 8.8-4.8-8.8-8.7-4.7 8.7-4.8 4.8-8.7zm30.2 262.8l4.8 8.8 8.7 4.7-8.7 4.8-4.8 8.7-4.8-8.7-8.7-4.8 8.7-4.7 4.8-8.8zM627.5 199l4.8 8.7 8.7 4.8-8.7 4.8-4.8 8.7-4.7-8.7-8.7-4.8 8.7-4.8 4.7-8.7zm-80 140.6l4.7 8.7 8.8 4.8-8.8 4.7-4.7 8.8-4.8-8.8-8.7-4.7 8.7-4.8 4.8-8.7zm685.7 252.2l4.7 8.8 8.7 4.7-8.7 4.8-4.7 8.7-4.8-8.7-8.7-4.8 8.7-4.7 4.8-8.8zm-62.3-379.3l4.7 8.7 8.8 4.8-8.8 4.8-4.7 8.7-4.8-8.7-8.7-4.8 8.7-4.8 4.8-8.7zm117.2 120.4l4.7 8.7 8.8 4.8-8.8 4.7-4.7 8.8-4.8-8.8-8.7-4.7 8.7-4.8 4.8-8.7zm-78.8 125.3l4.8 8.7 8.7 4.8-8.7 4.7-4.8 8.7-4.8-8.7-8.7-4.7 8.7-4.8 4.8-8.7zM930.4 591.8l4.7 8.8 8.8 4.7-8.8 4.8-4.7 8.7-4.8-8.7-8.7-4.8 8.7-4.7 4.8-8.8zm145.6-38.1l4.8 8.8 8.7 4.7-8.7 4.8-4.8 8.7-4.7-8.7-8.8-4.8 8.8-4.7 4.7-8.8zM878.8 189.5l4.7 8.7 8.7 4.8-8.7 4.7-4.7 8.8-4.8-8.8-8.7-4.7 8.7-4.8 4.8-8.7zM537.1 605.3l4.8 8.7 8.7 4.8-8.7 4.8-4.8 8.7-4.8-8.7-8.7-4.8 8.7-4.8 4.8-8.7z"/><path fill="none" stroke="#00a79d" stroke-linecap="round" stroke-linejoin="round" stroke-width="9.06" d="M847.9 476.5l-70.3-140.1 89.4-44.9 122.6-61.6 70.4 140-212.1 106.6z"/><path fill="#00a79d" stroke="#00a79d" stroke-linecap="round" stroke-linejoin="round" stroke-width="9.06" d="M748.6 278.8l162.7-9.6-133.7 67.2-29-57.6z"/><path fill="none" stroke="#00a79d" stroke-linecap="round" stroke-linejoin="round" stroke-width="9.06" d="M876.8 534.1l104.9-124.8-133.8 67.2 28.9 57.6zm-88.6-176.4l-73.3 20.8 30.9 61.6 66.9-33.7-24.5-48.7z"/><path fill="#00a79d" stroke="#00a79d" stroke-linecap="round" stroke-linejoin="round" stroke-width="9.06" d="M837.2 455.2l-60.4 46.4-31-61.5 66.9-33.7 24.5 48.8zm152.4-225.3l104.7 9.5a27 27 0 0 1 20.5 40.9l-54.8 89.6z"/><circle cx="961.5" cy="331.7" r="34.5" fill="#00a79d" stroke="#00a79d" stroke-linecap="round" stroke-linejoin="round" stroke-width="9.06"/><path fill="none" stroke="#021d49" stroke-linecap="round" stroke-linejoin="round" stroke-width="9.06" d="M717.8 453.9L539 542.7M679.6 396l-74.4 36.9m126.2 91.2l-117.9 58.6"/></svg>